<svg width="1600" height="262" viewBox="0 0 1600 262" fill="none" xmlns="http://www.w3.org/2000/svg">
<g clip-path="url(#clip0_494_2002)">
<rect y="-1" width="1600" height="263" fill="#B6D5E1"/>
<path d="M1146.33 62L1171 23L1146.33 -16L1121.17 23L1146.33 62Z" fill="#E9FDDE"/>
<path d="M1021 23H1121.95L1147 62H1045.8L1021 23Z" fill="#BFDEDD"/>
<path d="M1046.55 -16H1147L1121.95 23H1021L1046.55 -16Z" fill="#65799B"/>
<path d="M926.332 225L951 186L926.332 147L901.165 186L926.332 225Z" fill="#E9FDDE"/>
<path d="M801 186H901.949L927 225H825.803L801 186Z" fill="#BFDEDD"/>
<path d="M826.547 147H927L901.949 186H801L826.547 147Z" fill="#65799B"/>
<path d="M1567.82 281L1600.4 229.5L1567.82 178L1534.59 229.5L1567.82 281Z" fill="#2F2A62"/>
<path d="M1402.32 229.5H1535.62L1568.7 281H1435.07L1402.32 229.5Z" fill="#555273"/>
<path d="M1436.06 178H1568.7L1535.62 229.5H1402.32L1436.06 178Z" fill="#6A64A4"/>
<path d="M683.172 353L724.603 287.5L683.172 222L640.905 287.5L683.172 353Z" fill="#E9FDDE"/>
<path d="M515.586 222H684.295L642.222 287.5H472.68L515.586 222Z" fill="#E2EFF1"/>
<path d="M113.172 88L154.603 22.5L113.172 -43L70.9053 22.5L113.172 88Z" fill="#E9FDDE"/>
<path d="M-97.3203 22.5H72.2219L114.295 88H-55.6637L-97.3203 22.5Z" fill="#E2EFF1"/>
<path d="M-54.414 -43H114.295L72.2219 22.5H-97.3203L-54.414 -43Z" fill="#65799B"/>
<path d="M1531.72 -16L1558.6 26.5L1531.72 69L1504.3 26.5L1531.72 -16Z" fill="#E9FDDE"/>
<path d="M1395.14 26.5H1505.15L1532.45 -16H1422.17L1395.14 26.5Z" fill="#E2EFF1"/>
<path d="M1422.98 69H1532.45L1505.15 26.5H1395.14L1422.98 69Z" fill="#65799B"/>
<path d="M654.572 46L607.818 -26H698.52L747.143 46H654.572Z" fill="#2E4185"/>
<path d="M607.818 118L654.572 46H747.143L701.325 118H607.818Z" fill="#6A64A4"/>
<path d="M654.572 46L607.819 -26L562 46L607.819 118L654.572 46Z" fill="#151A36"/>
<path d="M37 230.222L77.404 168H-0.979797L-43 230.222H37Z" fill="#2E4185"/>
<path d="M77.404 292.445L37 230.223H-43L-3.40404 292.445H77.404Z" fill="#6A64A4"/>
<path d="M37 230.222L77.404 168L117 230.222L77.404 292.444L37 230.222Z" fill="#151A36"/>
<path d="M1085.5 284L1036 206L1085.5 128L1136 206L1085.5 284Z" fill="#E9FDDE"/>
<path d="M1339.5 206H1136L1085.5 284H1289.5L1339.5 206Z" fill="#E2EFF1"/>
<path d="M1288 128H1085.5L1136 206H1339.5L1288 128Z" fill="#65799B"/>
</g>
<defs>
<clipPath id="clip0_494_2002">
<rect width="1600" height="263" fill="white" transform="translate(0 -1)"/>
</clipPath>
</defs>
</svg>
