<svg width="1600" height="263" viewBox="0 0 1600 263" fill="none" xmlns="http://www.w3.org/2000/svg">
<g clip-path="url(#clip0_831_2193)">
<rect width="1600" height="263" fill="#52616B"/>
<path d="M936.332 95L961 56L936.332 17L911.165 56L936.332 95Z" fill="#F0F5F9"/>
<path d="M811 56H911.949L937 95H835.803L811 56Z" fill="#C9D6DF"/>
<path d="M836.547 17H937L911.949 56H811L836.547 17Z" fill="#1E2022"/>
<path d="M1492.67 95L1468 56L1492.67 17L1517.83 56L1492.67 95Z" fill="#F0F5F9"/>
<path d="M1618 56H1517.05L1492 95H1593.2L1618 56Z" fill="#C9D6DF"/>
<path d="M1592.45 17H1492L1517.05 56H1618L1592.45 17Z" fill="#1E2022"/>
<path d="M1599.82 282L1632.4 230.5L1599.82 179L1566.59 230.5L1599.82 282Z" fill="#151A36"/>
<path d="M1434.32 230.5H1567.62L1600.71 282H1467.07L1434.32 230.5Z" fill="#30364F"/>
<path d="M1468.06 179H1600.71L1567.62 230.5H1434.32L1468.06 179Z" fill="#6E7AA4"/>
<path d="M64.3812 283L42 247.616L64.3812 212.231L87.2145 247.616L64.3812 283Z" fill="#151A36"/>
<path d="M178.093 247.616H86.5034L63.7749 283H155.589L178.093 247.616Z" fill="#30364F"/>
<path d="M154.914 212.231H63.7749L86.5034 247.616H178.093L154.914 212.231Z" fill="#6E7AA4"/>
<path d="M96.1725 89L137.603 23.5L96.1725 -42L53.9053 23.5L96.1725 89Z" fill="#F0F5F9"/>
<path d="M-114.321 23.5H55.2217L97.2948 89H-72.664L-114.321 23.5Z" fill="#1E2022"/>
<path d="M-71.4143 -42H97.2948L55.2217 23.5H-114.321L-71.4143 -42Z" fill="#C9D6DF"/>
<path d="M594.5 11.3889L631.116 -45H560.081L522 11.3889H594.5Z" fill="#6E7AA4"/>
<path d="M631.116 67.7776L594.5 11.3887H522L557.884 67.7776H631.116Z" fill="#30364F"/>
<path d="M594.5 11.3889L631.116 -45L667 11.3889L631.116 67.7778L594.5 11.3889Z" fill="#151A36"/>
<path d="M900.5 234.5L861.864 175H936.818L977 234.5H900.5Z" fill="#6E7AA4"/>
<path d="M861.864 294L900.5 234.5H977L939.136 294H861.864Z" fill="#1D285B"/>
<path d="M900.5 234.5L861.864 175L824 234.5L861.864 294L900.5 234.5Z" fill="#151A36"/>
<path d="M1331 51L1380.5 129L1331 207L1280.5 129L1331 51Z" fill="#F0F5F9"/>
<path d="M1077 129H1280.5L1331 51H1127L1077 129Z" fill="#C9D6DF"/>
<path d="M1128.5 207H1331L1280.5 129H1077L1128.5 207Z" fill="#1E2022"/>
</g>
<defs>
<clipPath id="clip0_831_2193">
<rect width="1600" height="263" fill="white"/>
</clipPath>
</defs>
</svg>
