<svg width="1600" height="263" viewBox="0 0 1600 263" fill="none" xmlns="http://www.w3.org/2000/svg">
<g clip-path="url(#clip0_494_1736)">
<rect width="1600" height="263" fill="#E1FFCF"/>
<path d="M1266.33 276L1291 237L1266.33 198L1241.17 237L1266.33 276Z" fill="#E9FDDE"/>
<path d="M1141 237H1241.95L1267 276H1165.8L1141 237Z" fill="#BAB5F6"/>
<path d="M1166.55 198H1267L1241.95 237H1141L1166.55 198Z" fill="#6FA3A9"/>
<path d="M926.332 226L951 187L926.332 148L901.165 187L926.332 226Z" fill="#CFCBF1"/>
<path d="M801 187H901.949L927 226H825.803L801 187Z" fill="#BAB5F6"/>
<path d="M826.547 148H927L901.949 187H801L826.547 148Z" fill="#6FA3A9"/>
<path d="M1244.82 84L1277.4 32.5L1244.82 -19L1211.59 32.5L1244.82 84Z" fill="#291D44"/>
<path d="M1079.32 32.5H1212.62L1245.71 84H1112.07L1079.32 32.5Z" fill="#3B2E5A"/>
<path d="M1113.06 -19H1245.71L1212.62 32.5H1079.32L1113.06 -19Z" fill="#60366F"/>
<path d="M683.172 354L724.603 288.5L683.172 223L640.905 288.5L683.172 354Z" fill="#BAB5F6"/>
<path d="M515.586 223H684.295L642.222 288.5H472.679L515.586 223Z" fill="#6FA3A9"/>
<path d="M113.172 89L154.603 23.5L113.172 -42L70.9053 23.5L113.172 89Z" fill="#4D3664"/>
<path d="M-97.3205 23.5H72.2217L114.295 89H-55.6639L-97.3205 23.5Z" fill="#CFCBF1"/>
<path d="M-54.4142 -42H114.295L72.2217 23.5H-97.3205L-54.4142 -42Z" fill="#60366F"/>
<path d="M718.5 23.5L743.5 -15H695L669 23.5H718.5Z" fill="#60366F"/>
<path d="M743.5 62L718.5 23.5H669L693.5 62H743.5Z" fill="#1D285B"/>
<path d="M718.5 23.5L743.5 -15L768 23.5L743.5 62L718.5 23.5Z" fill="#151A36"/>
<path d="M1538.59 24L1573 102L1538.59 180L1503.48 102L1538.59 24Z" fill="#4D3664"/>
<path d="M1362 102H1503.48L1538.59 24H1396.76L1362 102Z" fill="#BAB5F6"/>
<path d="M1397.8 180H1538.59L1503.48 102H1362L1397.8 180Z" fill="#CFCBF1"/>
</g>
<defs>
<clipPath id="clip0_494_1736">
<rect width="1600" height="263" fill="white"/>
</clipPath>
</defs>
</svg>
