<svg width="1600" height="263" viewBox="0 0 1600 263" fill="none" xmlns="http://www.w3.org/2000/svg">
<g clip-path="url(#clip0_494_1389)">
<rect width="1600" height="263" fill="#5F72B2"/>
<path d="M1146.33 63L1171 24L1146.33 -15L1121.17 24L1146.33 63Z" fill="#E9FDDE"/>
<path d="M1021 24H1121.95L1147 63H1045.8L1021 24Z" fill="#FFDAA9"/>
<path d="M1046.55 -15H1147L1121.95 24H1021L1046.55 -15Z" fill="#6FA3A9"/>
<path d="M926.332 226L951 187L926.332 148L901.165 187L926.332 226Z" fill="#E9FDDE"/>
<path d="M801 187H901.949L927 226H825.803L801 187Z" fill="#FFDAA9"/>
<path d="M826.547 148H927L901.949 187H801L826.547 148Z" fill="#6FA3A9"/>
<path d="M1138.43 282L1171 230.5L1138.43 179L1105.19 230.5L1138.43 282Z" fill="#291D44"/>
<path d="M972.923 230.5H1106.23L1139.31 282H1005.68L972.923 230.5Z" fill="#3B2E5A"/>
<path d="M1006.66 179H1139.31L1106.23 230.5H972.923L1006.66 179Z" fill="#60366F"/>
<path d="M683.172 354L724.603 288.5L683.172 223L640.905 288.5L683.172 354Z" fill="#E9FDDE"/>
<path d="M515.586 223H684.295L642.222 288.5H472.679L515.586 223Z" fill="#6FA3A9"/>
<path d="M113.172 89L154.603 23.5L113.172 -42L70.9053 23.5L113.172 89Z" fill="#FFDAA9"/>
<path d="M-97.3205 23.5H72.2217L114.295 89H-55.6639L-97.3205 23.5Z" fill="#6FA3A9"/>
<path d="M-54.4142 -42H114.295L72.2217 23.5H-97.3205L-54.4142 -42Z" fill="#60366F"/>
<path d="M660.5 23.5L685.5 -15H637L611 23.5H660.5Z" fill="#60366F"/>
<path d="M685.5 62L660.5 23.5H611L635.5 62H685.5Z" fill="#1D285B"/>
<path d="M660.5 23.5L685.5 -15L710 23.5L685.5 62L660.5 23.5Z" fill="#151A36"/>
<path d="M1489 51L1538.5 129L1489 207L1438.5 129L1489 51Z" fill="#E9FDDE"/>
<path d="M1235 129H1438.5L1489 51H1285L1235 129Z" fill="#FFDAA9"/>
<path d="M1286.5 207H1489L1438.5 129H1235L1286.5 207Z" fill="#6FA3A9"/>
</g>
<defs>
<clipPath id="clip0_494_1389">
<rect width="1600" height="263" fill="white"/>
</clipPath>
</defs>
</svg>
