<svg width="67" height="69" viewBox="0 0 67 69" fill="none" xmlns="http://www.w3.org/2000/svg">
<path fill-rule="evenodd" clip-rule="evenodd" d="M1 4.69631V7.39262H6.38818H11.7764L11.8181 12.822L11.8598 18.2514L19.9886 18.2925L28.1172 18.3335L28.0739 15.5976L28.0305 12.8617L22.6819 12.82L17.3335 12.7781L17.2917 7.43019L17.25 2.08211L9.125 2.04106L1 2V4.69631ZM22.7195 4.69774V7.39262H30.8049H38.8902V4.69774V2.00285H30.8049H22.7195V4.69774ZM44.2805 7.39262V12.7824H38.8902H33.5V20.9463V29.1102H36.1951H38.8902V23.7205V18.3307H44.2805H49.6707V10.1668V2.00285H46.9756H44.2805V7.39262ZM55.2195 4.69774V7.39262H60.6098H66V4.69774V2.00285H60.6098H55.2195V4.69774ZM1.10574 12.8881C1.04756 12.9461 1 16.6199 1 21.052V29.1102H9.16463H17.3293V26.4174V23.7246L11.8994 23.6829L6.46951 23.6412L6.42782 18.2118L6.38612 12.7824H3.7988C2.37562 12.7824 1.16377 12.83 1.10574 12.8881ZM55.1819 18.208L55.1402 23.6412L49.7104 23.6829L44.2805 23.7246V26.4174V29.1102H55.1402H66V26.4153V23.7205H63.3069H60.6139L60.5722 18.2911L60.5305 12.8617L57.8771 12.8182L55.2236 12.7748L55.1819 18.208ZM22.7195 29.1102V34.5H17.25H11.7805V37.1949V39.8898H19.9451H28.1098V31.8051V23.7205H25.4146H22.7195V29.1102ZM1 50.7486V66.9971H3.69369H6.38739L6.42845 58.8729L6.46951 50.7486L9.12119 50.7051L11.773 50.6617L11.8163 53.4L11.8598 56.1383H14.5549H17.25V50.7486V45.3588L11.8201 45.3171L6.39024 45.2754V39.8877V34.5H3.69512H1V50.7486ZM33.5 37.1949V39.8898H38.8902H44.2805V45.2795V50.6693H49.7538H55.2271L55.1837 48.0141L55.1402 45.3588L52.4055 45.3154L49.6707 45.2721V39.886V34.5H41.5854H33.5V37.1949ZM55.2195 37.1949V39.8898H57.9146H60.6098V45.2795V50.6693H63.3049H66V42.5847V34.5H60.6098H55.2195V37.1949ZM22.7195 47.9744V50.6693H28.1098H33.5V58.8332V66.9971H36.1951H38.8902V56.1383V45.2795H30.8049H22.7195V47.9744ZM22.6837 58.8729L22.6402 61.5281L17.2066 61.5698L11.7729 61.6115L11.8163 64.2647L11.8598 66.9179L19.9848 66.9589L28.1098 67V61.6088V56.2176H25.4184H22.7271L22.6837 58.8729ZM44.3163 58.8729L44.3598 61.5281L52.4848 61.5692L60.6098 61.6102V64.3037V66.9971H63.3049H66V61.6074V56.2176H55.1364H44.2729L44.3163 58.8729Z" fill="#333333" stroke="white" stroke-width="2"/>
</svg>
