<svg width="68" height="66" viewBox="0 0 68 66" fill="none" xmlns="http://www.w3.org/2000/svg">
<path fill-rule="evenodd" clip-rule="evenodd" d="M2.93953 1.21292L2.63639 1.42571V14.1832V26.9405L2.92344 27.201C3.20135 27.4532 3.61113 27.4615 15.7957 27.4615C27.9802 27.4615 28.39 27.4532 28.6679 27.201L28.955 26.9405V14.2438C28.955 1.7293 28.951 1.54304 28.6822 1.2735C28.4134 1.00397 28.2277 1 15.8261 1C4.65773 1 3.20844 1.02393 2.93953 1.21292ZM52.0219 1.23932C51.7761 1.448 38.7475 25.0287 38.2946 26.0844C38.0321 26.6963 38.2678 27.2177 38.8884 27.398C39.2287 27.497 43.683 27.5301 52.9333 27.5022L66.4796 27.4615L66.7404 27.1387C66.8837 26.9612 67.0005 26.6842 67 26.5233C66.9988 26.1733 53.4538 1.41709 53.1289 1.17094C52.811 0.930256 52.3524 0.958564 52.0219 1.23932ZM27.0458 14.2658V25.617L15.7616 25.582L4.47732 25.547L4.44241 14.2308L4.4075 2.91453H15.7267H27.0458V14.2658ZM58.6108 14.8542C61.8165 20.7065 64.4119 25.5223 64.3785 25.5559C64.345 25.5894 59.0049 25.6012 52.5117 25.582L40.7057 25.547L46.5236 14.9486C49.7236 9.11938 52.3946 4.26797 52.4593 4.16745C52.524 4.06694 52.6231 4.03617 52.6796 4.09921C52.736 4.16212 55.405 9.00191 58.6108 14.8542ZM8.19438 38.8462C7.71273 39.3907 1 50.5677 1 50.8251C1 51.1921 7.90528 64.4496 8.2586 64.7607C8.51006 64.9822 9.07066 65 15.7957 65C22.5216 65 23.081 64.9822 23.33 64.7607C23.7035 64.4282 30.5913 52.1262 30.5913 51.7913C30.5913 51.5227 23.802 39.3084 23.3956 38.8462C23.2002 38.6238 22.6624 38.6068 15.7957 38.6068C8.92939 38.6068 8.39102 38.6238 8.19438 38.8462ZM49.9707 38.8181C45.5388 39.7822 41.9683 42.7589 40.3636 46.8274C38.6988 51.048 39.2568 55.8174 41.8418 59.4615C42.6352 60.58 44.1391 62.0321 45.3288 62.8278C48.6999 65.0827 53.1982 65.6181 57.0888 64.2274C59.4921 63.3684 61.7806 61.6228 63.3515 59.4503C64.075 58.45 65.0451 56.3551 65.3727 55.0855C65.7716 53.5403 65.8638 51.1817 65.5874 49.5949C65.0909 46.7458 63.9263 44.5237 61.8308 42.4271C59.9164 40.5118 57.7944 39.3508 55.2451 38.824C53.9502 38.5565 51.1876 38.5534 49.9707 38.8181ZM25.3665 46.0598C27.1107 49.1436 28.5243 51.7348 28.5078 51.8179C28.4912 51.9011 27.0696 54.4704 25.3485 57.5273L22.2192 63.0855L15.8029 63.0844L9.38649 63.0833L6.21598 57.0176C4.47228 53.6814 3.04548 50.9199 3.04548 50.8806C3.04548 50.7965 8.82302 41.3111 9.2103 40.7593L9.47512 40.3819L15.8352 40.4174L22.1952 40.453L25.3665 46.0598ZM55.4099 40.8088C57.4345 41.3195 59.9375 42.8676 61.1524 44.3607C62.997 46.6276 63.8572 48.9766 63.8622 51.7603C63.8685 55.2589 62.3617 58.4419 59.6762 60.6033C58.5112 61.5409 57.5874 62.0425 56.0888 62.5513C54.9683 62.9316 54.5603 62.9985 53.0235 63.0528C50.8339 63.1302 49.4053 62.8343 47.5689 61.9228C45.3119 60.8025 43.6182 59.1078 42.513 56.8633C41.6318 55.0736 41.3323 53.7975 41.3254 51.8034C41.3142 48.5975 42.3635 46.0563 44.6287 43.8034C47.5541 40.8939 51.4532 39.8108 55.4099 40.8088Z" fill="#4F4F4F" stroke="#1A1A1A"/>
</svg>
