<svg width="79" height="69" viewBox="0 0 79 69" fill="none" xmlns="http://www.w3.org/2000/svg">
<path fill-rule="evenodd" clip-rule="evenodd" d="M29.7046 3.47448C24.361 5.43437 19.8739 7.10791 19.7334 7.1932C19.1229 7.56405 19.1129 7.75468 19.1129 19.0248C19.1129 29.3291 19.0959 30.0077 18.8342 30.1117C18.6808 30.1726 14.6134 31.661 9.79536 33.4189C4.97732 35.1769 0.881901 36.6939 0.694435 36.79C0.507129 36.886 0.274111 37.1405 0.176794 37.3555C0.0524012 37.6304 0 41.2142 0 49.455V61.1637L0.358367 61.4832C0.555548 61.6589 5.14679 63.4218 10.5612 65.4009L20.4057 68.9992L29.8352 65.5503C35.0217 63.6534 39.3807 62.1014 39.5221 62.1014C39.6636 62.1014 44.02 63.6536 49.2031 65.5506L58.6269 69L68.4443 65.4107C74.7651 63.0997 78.393 61.694 78.6306 61.4636L79 61.1058V49.2759C79 38.2426 78.9812 37.4236 78.7213 37.1143C78.4897 36.8389 71.3566 34.1431 60.3251 30.1619L59.8871 30.0038V18.8943C59.8871 8.54704 59.868 7.76206 59.6084 7.45326C59.4215 7.23104 56.1543 5.96362 49.6935 3.60708C44.3937 1.67413 39.9141 0.0515784 39.7389 0.00171546C39.5419 -0.0544004 35.7161 1.26961 29.7046 3.47448ZM47.0907 5.38435C51.2375 6.90541 54.6304 8.19511 54.6307 8.25026C54.6309 8.30542 51.2259 9.59223 47.0643 11.1099L39.4973 13.8694L31.9332 11.1022C27.7728 9.58037 24.3693 8.29355 24.3696 8.24257C24.3702 8.1709 39.2087 2.65744 39.4858 2.62601C39.5218 2.622 42.944 3.86329 47.0907 5.38435ZM30.063 13.1421L38.2258 16.1304V26.0489C38.2258 31.6267 38.1646 35.9675 38.0861 35.9675C38.0094 35.9675 34.4794 34.6967 30.2419 33.1436C26.0044 31.5903 22.3401 30.2485 22.0993 30.1617L21.6613 30.0038V20.079C21.6613 14.6204 21.7151 10.154 21.7807 10.154C21.8464 10.1539 25.5735 11.4986 30.063 13.1421ZM57.3387 20.0776C57.3387 29.3795 57.3212 30.0078 57.06 30.1112C55.7367 30.6352 41.0502 35.9675 40.9303 35.9675C40.8299 35.9675 40.7742 32.4235 40.7742 26.0545V16.1414L48.8574 13.1654C53.3032 11.5286 57.0302 10.1813 57.1396 10.1717C57.297 10.1579 57.3387 12.2364 57.3387 20.0776ZM29.3065 35.6002C32.5915 36.8022 35.3369 37.8349 35.4073 37.8951C35.4777 37.9554 32.1296 39.2493 27.9671 40.7704L20.3992 43.5359L12.8276 40.7662C8.66324 39.2427 5.25637 37.9548 5.25669 37.9038C5.25716 37.853 8.64269 36.5742 12.7803 35.0623L20.3032 32.3131L21.8183 32.864C22.6518 33.167 26.0214 34.3982 29.3065 35.6002ZM67.7307 35.6055C71.0372 36.8187 73.743 37.8563 73.7433 37.9115C73.7436 37.9667 70.3388 39.2535 66.1772 40.7712L58.6102 43.5306L51.0467 40.7638C46.8868 39.2419 43.521 37.959 43.5671 37.9126C43.6131 37.8663 47.0353 36.5886 51.1716 35.0733L58.6925 32.3185L60.2056 32.859C61.0379 33.1564 64.4242 34.3922 67.7307 35.6055ZM10.9501 42.8034L19.1129 45.7916V55.7903C19.1129 61.2897 19.0951 65.7876 19.0731 65.7858C19.0511 65.7841 15.3421 64.4296 10.8306 62.7758L2.62802 59.7691L2.58693 49.7922C2.56447 44.305 2.60031 39.8153 2.66657 39.8153C2.73299 39.8151 6.46064 41.1598 10.9501 42.8034ZM38.1873 49.7915L38.1462 59.7677L30.1825 62.6969C25.8024 64.3081 22.0934 65.6678 21.94 65.7185C21.6766 65.8056 21.6613 65.2625 21.6613 55.8067V45.8027L29.7445 42.8266C34.1903 41.1898 37.9178 39.8425 38.028 39.8329C38.1873 39.819 38.2198 41.8563 38.1873 49.7915ZM49.1759 42.8034L57.3387 45.7916V55.7903C57.3387 61.2897 57.3207 65.7876 57.2989 65.7858C57.2771 65.7841 53.5679 64.4296 49.0564 62.7758L40.8538 59.7691L40.8127 49.7922C40.7903 44.305 40.8261 39.8153 40.8924 39.8153C40.9588 39.8151 44.6864 41.1598 49.1759 42.8034ZM76.4131 49.7915L76.372 59.7677L68.4083 62.6969C64.0282 64.3081 60.319 65.6678 60.1658 65.7185C59.9024 65.8056 59.8871 65.2625 59.8871 55.8067V45.8027L67.9703 42.8266C72.4161 41.1898 76.1436 39.8425 76.2538 39.8329C76.4131 39.819 76.4456 41.8563 76.4131 49.7915Z" fill="#1A1A1A"/>
</svg>
