<svg width="21" height="21" viewBox="0 0 21 21" fill="none" xmlns="http://www.w3.org/2000/svg">
<path fill-rule="evenodd" clip-rule="evenodd" d="M8.78989 0.0151699C8.41689 0.0593545 7.71095 0.192425 7.44276 0.269196C4.67527 1.06095 2.65453 3.24191 2.06002 6.07864C1.95777 6.5665 1.95308 6.70206 1.9279 9.89481L1.90181 13.2051L1.78909 13.4164C1.72712 13.5326 1.3404 14.1055 0.929763 14.6894C0.51913 15.2733 0.143765 15.8227 0.0956667 15.9102C-0.0411481 16.1591 -0.0286974 16.8924 0.116875 17.1632C0.283941 17.4739 0.534657 17.7206 0.829022 17.864L1.09702 17.9945L3.4437 18.0079L5.79038 18.0213L5.85098 18.2662C5.93903 18.6217 6.24073 19.2149 6.51786 19.5772C6.97044 20.1689 7.76316 20.688 8.55318 20.9101C8.97641 21.0291 10.0095 21.0302 10.4468 20.9122C11.7449 20.5618 12.8366 19.4923 13.1475 18.2662L13.2096 18.0213L15.5563 18.0079L17.903 17.9945L18.171 17.864C18.4653 17.7206 18.7161 17.4739 18.8831 17.1632C19.0287 16.8924 19.0411 16.1591 18.9043 15.9102C18.8562 15.8227 18.4809 15.2733 18.0702 14.6894C17.6596 14.1055 17.2729 13.5326 17.2109 13.4164L17.0982 13.2051L17.0696 9.87133C17.0379 6.16884 17.041 6.20739 16.6897 5.1549C15.8248 2.56365 13.6563 0.666153 10.9439 0.127251C10.4855 0.0362058 9.18428 -0.0315032 8.78989 0.0151699ZM10.7782 1.62577C12.3343 1.97765 13.6651 2.882 14.5511 4.18979C14.9354 4.7571 15.2411 5.46828 15.429 6.23233C15.5219 6.61012 15.5288 6.81095 15.5586 9.98872C15.5925 13.6144 15.5844 13.5035 15.856 14.0814C15.9208 14.2193 16.3142 14.818 16.7303 15.412L17.4868 16.492L13.4934 16.504C11.297 16.5106 7.70299 16.5106 5.50662 16.504L1.51319 16.492L2.2697 15.412C2.68577 14.818 3.07922 14.2193 3.14398 14.0814C3.41558 13.5035 3.40753 13.6144 3.44143 9.98872C3.47116 6.81095 3.47807 6.61012 3.571 6.23233C3.96099 4.64633 4.84702 3.36695 6.16248 2.49016C6.8884 2.00634 7.9387 1.62234 8.81356 1.52097C9.22306 1.4735 10.3769 1.53505 10.7782 1.62577ZM11.6094 18.1002C11.5233 18.328 11.2476 18.7106 11.0201 18.9177C10.1088 19.7474 8.78894 19.7161 7.90968 18.8441C7.67317 18.6095 7.36967 18.1593 7.36967 18.043C7.36967 18.0293 8.33059 18.018 9.50506 18.018C11.519 18.018 11.6387 18.0227 11.6094 18.1002Z" fill="black"/>
<circle cx="16" cy="5" r="4" fill="#D79533" stroke="white" stroke-width="2"/>
</svg>
