<svg width="16" height="17" viewBox="0 0 16 17" fill="none" xmlns="http://www.w3.org/2000/svg">
<path fill-rule="evenodd" clip-rule="evenodd" d="M3.43907 0.0567306C3.27827 0.133822 3.14567 0.289766 3.10108 0.45422C3.08265 0.522202 3.06749 0.72964 3.0674 0.915137L3.0672 1.25239L2.42626 1.26722C1.70886 1.28377 1.52184 1.32426 1.12004 1.54988C0.796426 1.73162 0.414913 2.14381 0.248529 2.4915C-0.0215094 3.0558 0.000428575 2.46799 0.000428575 9.13798C0.000428575 15.7958 -0.0205034 15.2222 0.242363 15.7717C0.48407 16.2771 0.952686 16.6947 1.50565 16.8974L1.78532 17H8H14.2147L14.4743 16.9064C15.2034 16.6435 15.7417 16.0502 15.9426 15.288C15.9959 15.0858 15.9996 14.6917 15.9996 9.13798C15.9996 2.4661 16.0217 3.0562 15.7505 2.48934C15.5598 2.09085 15.1733 1.69615 14.7826 1.50085C14.4021 1.31063 14.1232 1.25934 13.4696 1.25934H12.9328L12.9326 0.918594C12.9324 0.513858 12.8976 0.365527 12.7673 0.213439C12.4859 -0.114838 11.9492 -0.0455588 11.7656 0.342722C11.7108 0.458841 11.6996 0.548198 11.6996 0.870923V1.25934H8.00256H4.30556L4.29485 0.832893C4.28518 0.446607 4.27681 0.395479 4.20596 0.289699C4.02851 0.0247506 3.7085 -0.0724526 3.43907 0.0567306ZM3.07298 2.91319C3.08765 3.36769 3.1371 3.50824 3.33354 3.65401C3.56979 3.82934 3.87047 3.81212 4.09472 3.61043C4.26876 3.45389 4.3004 3.34548 4.3004 2.90594V2.52258H8H11.6996V2.90594C11.6996 3.34548 11.7312 3.45389 11.9053 3.61043C12.1341 3.81621 12.4488 3.82651 12.6924 3.63616C12.8644 3.50176 12.9128 3.35246 12.927 2.91319L12.9396 2.52258H13.4542C13.893 2.52258 13.995 2.53259 14.1461 2.59053C14.3694 2.6761 14.5688 2.8722 14.6803 3.1158L14.7664 3.30379V9.13798V14.9722L14.6816 15.155C14.58 15.3741 14.4049 15.5588 14.2017 15.6614L14.0524 15.7368H8H1.94759L1.79743 15.661C1.58983 15.5562 1.41858 15.3761 1.31836 15.1572L1.23363 14.9722V9.13798C1.23363 3.59587 1.23655 3.29715 1.29191 3.17082C1.38518 2.9581 1.50496 2.80043 1.64584 2.70492C1.87833 2.54731 1.97676 2.52743 2.53644 2.52491L3.06035 2.52258L3.07298 2.91319ZM4.11487 5.76399C3.62136 6.01977 3.54954 6.67875 3.97451 7.05137C4.61607 7.61388 5.53714 6.83183 5.12246 6.07664C4.98463 5.82566 4.78794 5.70292 4.49898 5.68763C4.31766 5.67803 4.25776 5.68993 4.11487 5.76399ZM7.52943 5.74385C7.2556 5.87399 7.09132 6.14323 7.09132 6.4619C7.09132 6.78991 7.25664 7.04608 7.55235 7.1764C7.85007 7.30761 8.16745 7.2383 8.40205 6.99083C8.75637 6.61711 8.64256 5.98007 8.18228 5.76054C7.97657 5.6624 7.71484 5.65572 7.52943 5.74385ZM10.8957 5.74923C10.2105 6.10547 10.4046 7.17168 11.1664 7.23637C11.6499 7.27746 12.0223 6.88878 11.9827 6.38434C11.9631 6.13356 11.8596 5.9567 11.6399 5.7985C11.5221 5.71373 11.465 5.69677 11.2676 5.68777C11.0787 5.67919 11.0079 5.69089 10.8957 5.74923ZM7.72415 8.83965C7.32667 8.90039 7.06974 9.24506 7.09687 9.68117C7.11316 9.94326 7.21977 10.1269 7.43789 10.2686C7.62306 10.3889 7.81654 10.4207 8.03943 10.3674C8.26523 10.3134 8.51801 10.0614 8.5823 9.82625C8.73346 9.27311 8.28227 8.75435 7.72415 8.83965ZM11.0936 8.84325C10.9032 8.87762 10.7825 8.94899 10.6534 9.10361C10.2988 9.52789 10.4702 10.1651 10.9892 10.3527C11.4741 10.5279 11.9917 10.1457 11.9917 9.61243C11.9917 9.39744 11.9258 9.22501 11.7872 9.07698C11.6031 8.88038 11.3536 8.79631 11.0936 8.84325ZM4.11305 8.90913C3.7514 9.09254 3.59183 9.58134 3.77246 9.95244C3.90691 10.2287 4.15349 10.3821 4.46266 10.3821C4.82558 10.3821 5.09351 10.1744 5.1959 9.81361C5.24097 9.65475 5.24328 9.59737 5.2105 9.44734C5.16198 9.22528 5.01037 9.01761 4.82266 8.91611C4.63005 8.812 4.31088 8.80884 4.11305 8.90913ZM4.23549 12.013C4.04711 12.0752 3.86252 12.233 3.77438 12.4073C3.67251 12.6088 3.67617 12.9289 3.78259 13.126C3.8878 13.3209 4.09433 13.478 4.31033 13.5275C4.83415 13.6476 5.32772 13.142 5.2105 12.6054C5.11217 12.1553 4.65189 11.8757 4.23549 12.013ZM7.6216 12.0097C7.42133 12.0763 7.29535 12.1821 7.18797 12.3739C7.10859 12.5157 7.09194 12.5829 7.09194 12.7615C7.09194 13.6207 8.20098 13.8484 8.54906 13.0607C8.8081 12.4745 8.22184 11.8102 7.6216 12.0097ZM11.0668 11.9931C10.4987 12.1445 10.274 12.8352 10.6529 13.2649C10.8215 13.456 10.9936 13.5374 11.229 13.5374C12.0316 13.5374 12.289 12.4392 11.574 12.0656C11.4209 11.9856 11.2087 11.9552 11.0668 11.9931Z" fill="#828282"/>
</svg>
