<svg width="25" height="30" viewBox="0 0 25 30" fill="none" xmlns="http://www.w3.org/2000/svg">
<path opacity="0.6" d="M19.1744 1.146H1V28.8543H23.707V4.63945L19.1744 1.146Z" fill="#537293" stroke="#537293"/>
<path d="M4.98935 23.0472C4.85346 23.0472 4.73662 22.9992 4.63885 22.9031C4.54107 22.8053 4.49219 22.6876 4.49219 22.5501C4.49219 22.4142 4.54107 22.2982 4.63885 22.2021C4.73662 22.1043 4.85346 22.0554 4.98935 22.0554C5.12524 22.0554 5.24207 22.1043 5.33984 22.2021C5.43762 22.2982 5.48651 22.4142 5.48651 22.5501C5.48651 22.6412 5.46331 22.7249 5.4169 22.8011C5.37216 22.8757 5.3125 22.9354 5.23793 22.9801C5.16335 23.0249 5.08049 23.0472 4.98935 23.0472ZM6.54173 23V17.9091H8.35636C8.75243 17.9091 9.08055 17.9812 9.34073 18.1254C9.60091 18.2695 9.79563 18.4667 9.92489 18.717C10.0542 18.9656 10.1188 19.2456 10.1188 19.5572C10.1188 19.8704 10.0533 20.1521 9.92241 20.4023C9.79315 20.6509 9.5976 20.8481 9.33576 20.994C9.07558 21.1381 8.74828 21.2102 8.35387 21.2102H7.106V20.5589H8.28427C8.53451 20.5589 8.73751 20.5159 8.89329 20.4297C9.04906 20.3419 9.16341 20.2225 9.23633 20.0717C9.30924 19.9209 9.3457 19.7494 9.3457 19.5572C9.3457 19.3649 9.30924 19.1942 9.23633 19.0451C9.16341 18.896 9.04824 18.7791 8.8908 18.6946C8.73503 18.6101 8.52953 18.5678 8.27433 18.5678H7.30984V23H6.54173ZM15.1283 17.9091V23H14.4223L11.8346 19.2663H11.7874V23H11.0193V17.9091H11.7302L14.3204 21.6477H14.3676V17.9091H15.1283ZM19.6941 19.5174C19.646 19.3666 19.5814 19.2315 19.5002 19.1122C19.4206 18.9912 19.3253 18.8885 19.2143 18.804C19.1033 18.7178 18.9765 18.6523 18.834 18.6076C18.6931 18.5629 18.5382 18.5405 18.3691 18.5405C18.0824 18.5405 17.8239 18.6142 17.5936 18.7617C17.3632 18.9092 17.1809 19.1255 17.0467 19.4105C16.9141 19.6939 16.8478 20.0411 16.8478 20.4521C16.8478 20.8647 16.915 21.2135 17.0492 21.4986C17.1834 21.7836 17.3674 21.9999 17.601 22.1474C17.8347 22.2949 18.1007 22.3686 18.399 22.3686C18.6757 22.3686 18.9168 22.3123 19.1223 22.1996C19.3295 22.0869 19.4894 21.9278 19.6021 21.7223C19.7164 21.5152 19.7736 21.2715 19.7736 20.9915L19.9725 21.0288H18.5158V20.3949H20.5169V20.9741C20.5169 21.4016 20.4257 21.7728 20.2434 22.0877C20.0628 22.4009 19.8126 22.6429 19.4927 22.8136C19.1745 22.9843 18.81 23.0696 18.399 23.0696C17.9383 23.0696 17.5339 22.9635 17.1859 22.7514C16.8395 22.5393 16.5694 22.2385 16.3755 21.8491C16.1816 21.458 16.0847 20.994 16.0847 20.457C16.0847 20.051 16.141 19.6864 16.2537 19.3633C16.3664 19.0401 16.5247 18.7659 16.7285 18.5405C16.934 18.3134 17.1751 18.1403 17.4519 18.021C17.7303 17.9 18.0344 17.8395 18.3642 17.8395C18.6393 17.8395 18.8953 17.8801 19.1323 17.9613C19.3709 18.0425 19.583 18.1577 19.7686 18.3068C19.9559 18.456 20.1109 18.6333 20.2335 18.8388C20.3561 19.0426 20.439 19.2688 20.4821 19.5174H19.6941Z" fill="white"/>
</svg>
