<svg width="22" height="22" viewBox="0 0 22 22" fill="none" xmlns="http://www.w3.org/2000/svg">
<path fill-rule="evenodd" clip-rule="evenodd" d="M9.18804 0.0123931C7.60115 0.193727 6.62328 0.464106 5.48024 1.03763C4.52745 1.51569 3.82007 2.01539 3.04503 2.75791C-0.0775349 5.74947 -0.892378 10.4176 1.03766 14.258C3.14698 18.4552 7.83064 20.5933 12.3599 19.4266C13.6048 19.1059 14.6798 18.5772 15.9643 17.6539C16.0183 17.6151 16.5347 18.1005 18.1596 19.7177C20.5041 22.0509 20.499 22.0468 21.0394 21.9829C21.7193 21.9024 22.1406 21.2548 21.9569 20.5725C21.8964 20.3477 21.72 20.1566 19.7496 18.1797C18.1187 16.5435 17.6203 16.0147 17.659 15.9616C18.6638 14.5805 19.2519 13.2981 19.5662 11.8026C19.7312 11.018 19.7934 9.54256 19.6953 8.74649C19.5228 7.34799 19.0545 5.95925 18.3794 4.84409C17.3409 3.12876 15.9347 1.84389 14.1569 0.985986C13.1856 0.517246 12.3827 0.265282 11.362 0.10895C10.863 0.0325069 9.53015 -0.0267029 9.18804 0.0123931ZM11.4158 2.34339C13.436 2.7719 15.1138 3.89591 16.2457 5.5791C17.9957 8.18119 18.0002 11.5207 16.2574 14.1522C15.7949 14.8506 14.8527 15.7918 14.1531 16.2543C12.6911 17.2208 10.9901 17.6633 9.27542 17.5233C6.56834 17.3023 4.23158 15.7385 3.02706 13.3416C1.24274 9.79102 2.41952 5.51027 5.76895 3.36755C6.61139 2.82859 7.81164 2.39684 8.88342 2.24724C9.44298 2.1691 10.8453 2.22235 11.4158 2.34339Z" fill="#828282"/>
</svg>
