<?xml version="1.0" encoding="utf-8"?><svg viewBox="0 0 53 25" xmlns="http://www.w3.org/2000/svg" xmlns:xlink="http://www.w3.org/1999/xlink"><style>:root>svg{display:none}:root>svg:target{display:block}</style><svg viewBox="0 0 53 14" id="arrow" xmlns="http://www.w3.org/2000/svg"><path fill-rule="evenodd" clip-rule="evenodd" d="M44.947 1.11l.558-.555.557-.555 3.469 3.457L53 6.913l-3.468 3.457-3.469 3.456-.558-.555-.558-.554 2.515-2.507 2.515-2.506H38.815L27.652 7.68H0V6.145h27.652l11.163-.022h11.162l-2.515-2.506-2.515-2.506z"/></svg><svg viewBox="0 0 19 12" id="arrow2" xmlns="http://www.w3.org/2000/svg"><path d="M1 1.485L9.485 9.97l8.486-8.485"/></svg><svg viewBox="0 0 12 19" id="arrow3" xmlns="http://www.w3.org/2000/svg"><path d="M.713 17.906l9.193-7.713L2.192 1"/></svg><svg viewBox="0 0 24 24" id="arrow4" xmlns="http://www.w3.org/2000/svg"><path fill-rule="evenodd" clip-rule="evenodd" d="M12 24c6.627 0 12-5.373 12-12S18.627 0 12 0 0 5.373 0 12s5.373 12 12 12zm4.485-17h-9a1 1 0 000 2h6.586l-6.778 6.778 1.414 1.414 6.778-6.778V17a1 1 0 102 0V8a1 1 0 00-1-1z"/></svg><svg viewBox="0 0 16 18" id="arrow5" xmlns="http://www.w3.org/2000/svg"><path d="M7.293 17.707a1 1 0 001.414 0l6.364-6.364a1 1 0 00-1.414-1.414L8 15.586 2.343 9.929A1 1 0 00.93 11.343l6.364 6.364zM7 0v17h2V0H7z"/></svg><svg viewBox="0 0 9 14" id="back" xmlns="http://www.w3.org/2000/svg"><path d="M7.657 12.314L2 6.657 7.657 1"/></svg><svg viewBox="0 0 19 21" id="bell" xmlns="http://www.w3.org/2000/svg"><path fill-rule="evenodd" clip-rule="evenodd" d="M8.79.015A11.99 11.99 0 007.443.27c-2.768.792-4.788 2.973-5.383 5.81-.102.487-.107.623-.132 3.816l-.026 3.31-.113.211c-.062.117-.449.69-.86 1.273-.41.584-.785 1.134-.833 1.221-.137.25-.125.982.02 1.253.168.31.419.558.713.701l.268.13 2.347.014 2.346.013.061.245c.088.356.39.949.667 1.311.452.592 1.245 1.111 2.035 1.333.423.12 1.456.12 1.894.002 1.298-.35 2.39-1.42 2.7-2.646l.063-.245 2.346-.013 2.347-.014.268-.13c.294-.143.545-.39.712-.7.146-.272.158-1.005.021-1.254a33.999 33.999 0 00-.834-1.22c-.41-.585-.797-1.157-.86-1.274l-.112-.21-.028-3.335c-.032-3.702-.029-3.664-.38-4.716-.865-2.591-3.034-4.489-5.746-5.028-.459-.09-1.76-.159-2.154-.112zm1.988 1.61a6.161 6.161 0 013.773 2.565c.384.567.69 1.278.878 2.042.093.378.1.579.13 3.757.034 3.625.025 3.514.297 4.092.065.138.458.737.874 1.331l.757 1.08-3.994.012c-2.196.007-5.79.007-7.986 0l-3.994-.012.757-1.08c.416-.594.81-1.193.874-1.33.272-.579.264-.468.297-4.093.03-3.178.037-3.379.13-3.757.39-1.586 1.276-2.865 2.591-3.742.726-.484 1.777-.868 2.652-.969.41-.047 1.563.014 1.964.105zM11.61 18.1c-.086.228-.361.61-.589.818-.911.83-2.231.798-3.11-.074-.237-.235-.54-.685-.54-.801 0-.014.96-.025 2.135-.025 2.014 0 2.134.005 2.104.082z"/></svg><svg viewBox="0 0 16 12" id="check" xmlns="http://www.w3.org/2000/svg"><path fill-rule="evenodd" clip-rule="evenodd" d="M9.914 3.684L5.837 7.475l-.111.107L4.01 5.748c-.943-1.01-1.729-1.83-1.746-1.825-.017.006-.533.482-1.147 1.057L0 6.027l.098.114c.054.062 1.308 1.406 2.786 2.986L5.57 12l.173-.169c.096-.093 2.39-2.224 5.098-4.736 2.708-2.512 4.977-4.619 5.041-4.681L16 2.3l-.88-.956c-.483-.526-.96-1.043-1.06-1.15L13.88 0 9.914 3.684z"/></svg><svg viewBox="0 0 24 25" id="clip" xmlns="http://www.w3.org/2000/svg"><path fill-rule="evenodd" clip-rule="evenodd" d="M10.852.678c-3.753.39-7.042 2.436-9.04 5.623C-1.02 10.82-.486 16.82 3.098 20.728c1.993 2.173 4.46 3.465 7.425 3.888.557.08 2.4.078 2.978-.002 2.92-.405 5.385-1.694 7.374-3.856.78-.848 1.398-1.768 1.946-2.901.733-1.516 1.11-3.058 1.171-4.793.098-2.762-.75-5.433-2.44-7.684-.432-.577-1.431-1.61-2.002-2.07A12.09 12.09 0 0013.666.74C13.09.656 11.425.619 10.852.679zm1.635 4.905c.28.117.442.443.383.77-.028.155-.38.525-2.954 3.114-1.607 1.617-2.985 3.034-3.062 3.15-.716 1.073-.864 2.36-.403 3.514.379.947 1.257 1.779 2.22 2.1 1.219.407 2.48.179 3.494-.632.484-.388 5.205-5.172 5.346-5.418.786-1.37-.01-3.073-1.555-3.333a2.26 2.26 0 00-1.288.176c-.276.12-.475.307-2.614 2.438-1.332 1.328-2.343 2.372-2.38 2.459a.757.757 0 00.884 1.045c.175-.046.437-.29 2.146-1.995 2.063-2.058 2.05-2.048 2.415-1.979.442.083.682.615.45.997-.13.214-3.582 3.698-3.905 3.942-.892.672-2.087.574-2.848-.232a2.15 2.15 0 01-.262-2.618c.157-.253 4.325-4.46 4.794-4.839a3.441 3.441 0 012.264-.797c2.492 0 4.214 2.443 3.383 4.797-.252.714-.277.742-3.124 3.611-1.47 1.483-2.812 2.8-2.98 2.927-1.975 1.504-4.814 1.314-6.582-.441a4.894 4.894 0 01-1.485-3.565c-.001-1.104.261-1.989.856-2.885.197-.297 5.947-6.12 6.203-6.282.167-.105.39-.114.604-.024z"/></svg><svg viewBox="0 0 21 21" id="clock" xmlns="http://www.w3.org/2000/svg"><path fill-rule="evenodd" clip-rule="evenodd" d="M9.558.022c-2.03.199-3.905.946-5.55 2.212-.8.617-1.84 1.775-2.44 2.72-.26.408-.765 1.442-.946 1.936a12.59 12.59 0 00-.525 2.05c-.13.8-.13 2.321 0 3.122.184 1.133.475 2.048.972 3.061.543 1.107 1.108 1.892 2.013 2.796.904.905 1.69 1.47 2.797 2.013a10.34 10.34 0 003.062.97c.802.13 2.323.13 3.124 0a10.341 10.341 0 003.062-.97c1.108-.543 1.893-1.108 2.798-2.013.904-.904 1.47-1.689 2.012-2.796a9.262 9.262 0 00.737-1.956c.256-.97.324-1.525.326-2.646.002-1.028-.038-1.444-.224-2.31-.176-.82-.678-2.161-.925-2.47-.222-.28-.715-.38-1.04-.214-.324.165-.532.534-.487.864.011.08.103.339.205.576a8.568 8.568 0 01.729 3.535c.001 2.352-.895 4.508-2.57 6.182-1.674 1.674-3.828 2.569-6.185 2.569-2.357 0-4.51-.895-6.185-2.569-1.675-1.674-2.57-3.827-2.57-6.183 0-3.076 1.57-5.856 4.234-7.498 2.06-1.27 4.696-1.6 7.07-.887 1.003.301 1.708.666 2.865 1.48.209.147.297.183.484.199.786.065 1.266-.828.756-1.408-.145-.166-.776-.62-1.27-.914A10.636 10.636 0 0011.886.082c-.551-.074-1.845-.107-2.327-.06zm.754 3.491a.907.907 0 00-.528.368l-.123.176v6.752l.109.158c.06.087.18.207.267.267l.158.11 2.425.01c2.718.014 2.644.02 2.913-.277a.844.844 0 00.018-1.134c-.258-.293-.176-.282-2.273-.305l-1.891-.02-.02-2.78-.021-2.781-.125-.178c-.204-.29-.589-.444-.91-.366z"/></svg><svg viewBox="0 0 13 13" id="clock2" xmlns="http://www.w3.org/2000/svg"><path opacity=".7" fill-rule="evenodd" clip-rule="evenodd" d="M5.987.025A6.53 6.53 0 00.82 3.338a6.511 6.511 0 00-.462 5.295 6.288 6.288 0 001.496 2.409 6.492 6.492 0 007.486 1.304 6.557 6.557 0 003.092-3.183c.991-2.24.67-4.775-.85-6.71-.356-.454-1.067-1.096-1.563-1.412A6.818 6.818 0 008.177.23 6.178 6.178 0 006.943.023a4.748 4.748 0 00-.956.002zm.828 2.436a.825.825 0 01.177.176l.076.109.007 1.746.008 1.747.854.86c.934.938.934.938.913 1.233a.541.541 0 01-.256.436c-.095.067-.134.076-.32.076-.187 0-.227-.01-.323-.076-.06-.041-.528-.496-1.04-1.01-.77-.774-.938-.955-.965-1.047-.023-.08-.03-.64-.023-2.04l.008-1.93.083-.117a.544.544 0 01.516-.242c.138.008.208.027.285.079z"/></svg><svg viewBox="0 0 16 16" id="close" xmlns="http://www.w3.org/2000/svg"><path d="M1.071 1.071l7.071 7.071m7.071 7.071l-7.07-7.07m0 0l-7.072 7.07L15.213 1.071"/></svg><svg viewBox="0 0 11 11" id="close2" xmlns="http://www.w3.org/2000/svg"><path fill-rule="evenodd" clip-rule="evenodd" d="M.328.328L0 .655l2.422 2.423L4.845 5.5 2.422 7.922 0 10.345l.328.327.327.328 2.423-2.422L5.5 6.155l2.422 2.423L10.345 11l.327-.328.328-.327-2.422-2.423L6.155 5.5l2.423-2.422L11 .655l-.328-.327L10.345 0 7.922 2.422 5.5 4.845 3.078 2.422.655 0 .328.328z"/></svg><svg viewBox="0 0 13 13" id="close3" xmlns="http://www.w3.org/2000/svg"><path d="M1.646 2.183l-.353.353.353.354 1.982 1.982L5.257 6.5 3.628 8.128l.347.347-.347-.347-1.982 1.982-.353.354.353.354.268.268.269.268.353.353.354-.353 1.982-1.982-.354-.354.354.354L6.5 7.743l1.628 1.629.354-.354-.354.354 1.982 1.982.354.353.354-.353.268-.268.268-.268.353-.354-.353-.354-1.982-1.982-.354.354.354-.354L7.743 6.5l1.629-1.628-.354-.354.354.354 1.982-1.982.353-.354-.353-.353-.268-.269-.268-.268-.354-.353-.354.353-1.982 1.982.347.347-.347-.347L6.5 5.257 4.872 3.628 2.89 1.646l-.354-.353-.353.353-.269.268-.268.269z"/></svg><svg viewBox="0 0 25 24" id="close4" xmlns="http://www.w3.org/2000/svg"><path fill-rule="evenodd" clip-rule="evenodd" d="M3.891 4.17C2.754 5.548 2.085 6.75 1.564 8.347c-.617 1.892-.734 4.026-.334 6.068.17.865.618 2.162 1.03 2.982.333.662.769 1.36 1.25 2 .335.446 1.644 1.755 2.09 2.09 1.115.838 2.23 1.435 3.453 1.852 1.385.471 2.456.648 3.933.647 1.46 0 2.55-.178 3.882-.634.93-.318 1.481-.572 2.272-1.046a11.937 11.937 0 004.71-5.183c.317-.665.745-1.953.893-2.687.332-1.651.31-3.494-.062-5.166-.137-.615-.547-1.793-.831-2.39-1.416-2.975-3.908-5.196-6.99-6.23a11.588 11.588 0 00-3.671-.63c-1.458-.025-2.672.167-4.077.643A11.49 11.49 0 005.28 2.805c-.37.307-1.145 1.069-1.39 1.365zm5.166 3.15a1.37 1.37 0 01.424 0l.22.038 1.645 1.612 1.644 1.61 1.646-1.612 1.645-1.612.22-.04c.122-.02.313-.02.426.001.175.034.244.078.46.293.215.216.259.285.293.46.021.112.021.304 0 .425l-.04.22-1.612 1.646-1.612 1.646 1.611 1.644 1.611 1.645.04.22c.021.121.02.313-.001.426-.034.175-.078.243-.293.46-.216.215-.285.259-.46.293a1.4 1.4 0 01-.425 0l-.221-.039-1.644-1.611-1.645-1.611-1.645 1.612-1.646 1.612-.22.04c-.353.062-.59-.006-.859-.247-.286-.258-.39-.545-.327-.906l.041-.241 1.615-1.648 1.615-1.648L9.95 10.36 8.336 8.714l-.042-.241c-.063-.361.042-.649.328-.907.175-.156.281-.217.435-.247z"/></svg><svg viewBox="0 0 3 15" id="dotted" xmlns="http://www.w3.org/2000/svg"><circle cx="1.5" cy="1.5" r="1.5" transform="rotate(90 1.5 1.5)"/><circle cx="1.5" cy="7.5" r="1.5" transform="rotate(90 1.5 7.5)"/><circle cx="1.5" cy="13.5" r="1.5" transform="rotate(90 1.5 13.5)"/></svg><svg viewBox="0 0 13 13" id="download" xmlns="http://www.w3.org/2000/svg"><path opacity=".7" fill-rule="evenodd" clip-rule="evenodd" d="M5.992 4.513v4.513l-1.34-1.34-1.339-1.339-.361.363-.362.362 1.955 1.954L6.5 10.981l1.955-1.955 1.955-1.954-.362-.362-.361-.363-1.34 1.34-1.34 1.34V0H5.993v4.513zM0 12.493V13h13v-1.016H0v.508z"/></svg><svg viewBox="0 0 20 13" id="email" xmlns="http://www.w3.org/2000/svg"><path d="M0 13V2.708l10 5.959 10-5.959V13H0z"/><path d="M10 6.5L20 0H0l10 6.5z"/></svg><svg viewBox="0 0 8 15" id="facebook" xmlns="http://www.w3.org/2000/svg"><path fill-rule="evenodd" clip-rule="evenodd" d="M4.946.026c-.814.128-1.385.406-1.854.902-.395.418-.642.908-.781 1.553-.053.243-.06.39-.07 1.538l-.012 1.268H0v2.58l1.11.006 1.109.008.007 3.31.007 3.309h2.656V7.867h1.103c.606 0 1.102-.003 1.103-.007.074-.517.326-2.537.318-2.552-.006-.011-.578-.02-1.27-.02H4.887l.01-1.057c.009-1.033.01-1.06.076-1.224.132-.332.41-.528.826-.583.115-.014.548-.027.964-.027l.757-.001-.01-1.156L7.504.085 7.136.052c-.602-.055-1.909-.07-2.19-.026z"/></svg><svg viewBox="0 0 17 24" id="file" xmlns="http://www.w3.org/2000/svg"><path fill-rule="evenodd" clip-rule="evenodd" d="M1.1.065C.647.215.32.52.114.98L0 1.24v21.54l.117.264c.164.37.399.625.74.803l.294.153h14.684l.293-.153c.342-.178.576-.432.74-.803l.118-.264.011-6.98c.007-3.84 0-6.98-.013-6.98a.861.861 0 00-.167.081c-.13.076-.386.084-3.18.097-2.131.01-3.117-.002-3.304-.039-.637-.127-1.267-.612-1.562-1.2-.282-.564-.282-.567-.268-4.162.011-2.99.018-3.26.09-3.398A.975.975 0 008.67.023C8.67.009 7.01-.002 4.978 0 2.055.003 1.248.016 1.1.065zm8.812 3.7c0 2.442.012 3.07.06 3.19.094.24.389.492.613.525.105.016 1.434.023 2.953.015l2.76-.013-3.193-3.379L9.912.725v3.04zm-1.03 5.743c.063.05.157.15.207.22.089.127.092.19.104 2.552l.012 2.421.542-.567c.582-.609.688-.67 1.039-.6.218.043.483.324.524.555.074.415.069.422-1.257 1.825-1.061 1.123-1.25 1.303-1.394 1.33-.394.076-.4.071-1.727-1.33-1.326-1.403-1.33-1.41-1.257-1.825.041-.23.307-.512.525-.555.351-.07.456-.009 1.04.602l.543.568V12.35c0-1.552.016-2.397.048-2.485a.788.788 0 01.374-.42c.176-.087.53-.054.677.062zm3.54 9.38c.234.184.306.334.306.63 0 .297-.072.447-.305.631-.121.096-.165.097-3.834.11-2.523.01-3.763-.001-3.873-.035-.45-.138-.624-.79-.315-1.18.228-.286.043-.274 4.144-.263 3.716.01 3.757.011 3.878.107z"/></svg><svg viewBox="0 0 25 14" id="filter" xmlns="http://www.w3.org/2000/svg"><path d="M0 0h25v2H0zm4 6h17v2H4zm6 6h6v2h-6z"/></svg><svg viewBox="0 0 24 15" id="google" xmlns="http://www.w3.org/2000/svg"><path fill-rule="evenodd" clip-rule="evenodd" d="M6.504.015C3.29.362.743 2.706.11 5.9c-.146.736-.147 1.973-.001 2.706.59 2.973 2.799 5.197 5.753 5.79.418.085.657.103 1.365.103.898 0 1.23-.039 1.963-.229 1.21-.314 2.132-.84 2.98-1.696 1.16-1.171 1.793-2.654 1.944-4.556.044-.544.005-1.4-.077-1.706l-.028-.102H7.204v2.5h4.109l-.03.125A3.867 3.867 0 018.74 11.61c-2.185.715-4.489-.232-5.507-2.264-1.246-2.484-.03-5.553 2.553-6.442.76-.262 1.758-.303 2.525-.104.465.12 1.118.445 1.474.733.154.124.296.221.314.214.058-.021 1.913-1.826 1.913-1.86 0-.053-.506-.471-.85-.703A7.18 7.18 0 008.611.119C8.182.032 6.92-.03 6.503.015zm12.39 5.377v1.045l-1.049.012-1.05.012-.011 1.056-.012 1.057h2.123v2.137l1.05-.013 1.049-.012.012-1.056.012-1.056h2.075V6.438h-2.077v-2.09h-2.121v1.044z"/></svg><svg viewBox="0 0 20 19" id="home" xmlns="http://www.w3.org/2000/svg"><path fill-rule="evenodd" clip-rule="evenodd" d="M9.754 1.077c-.066.043-2.034 1.564-4.373 3.38-2.743 2.13-4.276 3.344-4.32 3.418-.226.395.216.897.602.682.049-.027 1.932-1.481 4.185-3.232C8.102 3.574 9.97 2.14 9.998 2.14c.03 0 1.919 1.449 4.199 3.22 3.882 3.015 4.156 3.221 4.308 3.235.38.034.63-.405.417-.736-.049-.077-1.652-1.346-4.229-3.348a629.633 629.633 0 00-4.357-3.369c-.242-.168-.397-.186-.582-.066zm-6.559 7.64c-.226.158-.212-.132-.223 4.439-.006 2.287 0 4.248.011 4.358a.52.52 0 00.14.336l.117.135 2.5.01c2.765.012 2.64.022 2.783-.226.066-.115.068-.206.068-2.644 0-1.727.013-2.587.04-2.722.155-.776.875-1.295 1.6-1.154a1.436 1.436 0 011.134 1.154c.027.135.04.995.04 2.722 0 2.438.003 2.529.069 2.644.142.248.018.238 2.782.227l2.5-.01.117-.136a.52.52 0 00.14-.336c.012-.11.018-2.071.012-4.358-.01-3.893-.015-4.166-.073-4.279-.17-.33-.65-.313-.818.03-.045.091-.052.649-.052 4.117v4.01H12.36l-.014-2.34c-.016-2.61-.014-2.586-.265-3.1-.316-.647-.887-1.13-1.522-1.29-.3-.074-.855-.073-1.142.004-.63.168-1.243.703-1.524 1.33-.23.515-.225.446-.24 3.038l-.015 2.359H3.915v-4.011c0-4.372.01-4.128-.198-4.302-.123-.103-.38-.105-.522-.005z"/></svg><svg viewBox="0 0 15 21" id="location" xmlns="http://www.w3.org/2000/svg"><path fill-rule="evenodd" clip-rule="evenodd" d="M6.667.045c-1.88.21-3.684 1.161-4.892 2.58C.56 4.05-.077 5.87.007 7.665c.04.846.198 1.593.55 2.609.873 2.516 2.755 5.607 5.479 9C6.743 20.155 7.46 21 7.504 21c.046 0 .62-.657 1.272-1.459 2.692-3.305 4.564-6.307 5.545-8.892.93-2.453.905-4.503-.08-6.478a7.16 7.16 0 00-1.118-1.664C11.52.711 9.07-.223 6.667.045zM8.44 3.82a3.775 3.775 0 012.696 2.653c.074.267.091.441.091.925 0 .484-.017.658-.09.925a3.785 3.785 0 01-2.697 2.656c-.44.117-1.356.13-1.787.023-1.369-.337-2.419-1.347-2.787-2.68-.073-.266-.09-.44-.09-.924 0-.484.017-.658.09-.925.378-1.37 1.472-2.392 2.884-2.697.462-.1 1.206-.08 1.69.044z"/></svg><svg viewBox="0 0 9 13" id="location_small" xmlns="http://www.w3.org/2000/svg"><path opacity=".7" fill-rule="evenodd" clip-rule="evenodd" d="M5.077.04c1.536.22 2.834 1.22 3.498 2.694.382.846.522 1.904.357 2.685-.33 1.553-1.583 3.885-3.643 6.774a10.6 10.6 0 01-.534.71c-.165.147-.391.125-.554-.054-.144-.159-1.015-1.391-1.448-2.048C.997 8.135.071 6.144.005 4.888c-.054-1.022.322-2.226.96-3.075.164-.22.55-.625.759-.798C2.67.229 3.899-.128 5.077.04zm-.918 2.6c-.741.165-1.295.89-1.295 1.692 0 .805.558 1.531 1.304 1.697.241.053.587.036.82-.042.798-.265 1.287-1.15 1.113-2.017-.185-.925-1.064-1.527-1.942-1.33z"/></svg><svg viewBox="0 0 17 14" id="logout" xmlns="http://www.w3.org/2000/svg"><path fill-rule="evenodd" clip-rule="evenodd" d="M1.413.055C.892.183.44.525.208.963-.014 1.385 0 .96 0 7c0 4.655.006 5.449.043 5.614.143.637.692 1.167 1.382 1.332.218.052.336.054 3.207.054h2.982l.149-.07a.514.514 0 00.325-.479.524.524 0 00-.255-.508l-.125-.082-2.996-.014-2.997-.014-.117-.059a.57.57 0 01-.292-.29c-.04-.09-.046-.688-.046-5.484s.005-5.393.046-5.484a.57.57 0 01.292-.29l.117-.06 2.997-.013 2.996-.014.125-.082a.524.524 0 00.255-.508.514.514 0 00-.325-.48L7.613 0 4.62.002c-2.848 0-3.003.004-3.207.053zm11.018 2.881c-.398.12-.576.568-.347.873.043.057.679.659 1.413 1.338a97.01 97.01 0 011.344 1.255c.006.012-1.651.022-3.682.022H7.467l-.13.061c-.259.124-.397.397-.327.645a.61.61 0 00.328.385l.13.061h3.691c2.03 0 3.688.01 3.682.022-.005.011-.61.576-1.344 1.255-.734.68-1.37 1.281-1.413 1.338-.357.475.249 1.096.806.826.118-.057 3.999-3.645 4.062-3.755.064-.112.064-.412 0-.524-.065-.113-3.946-3.699-4.066-3.757a.793.793 0 00-.455-.045z"/></svg><svg viewBox="0 0 20 14" id="mail" xmlns="http://www.w3.org/2000/svg"><path fill-rule="evenodd" clip-rule="evenodd" d="M1.675 1.05c-.332.103-.567.342-.644.654-.027.109-.036 1.713-.029 5.383l.01 5.229.106.19c.058.104.168.235.243.29.302.218-.286.204 8.645.204 8.932 0 8.343.014 8.645-.204.076-.055.185-.185.243-.29l.106-.19V1.683l-.106-.19a1.052 1.052 0 00-.243-.29c-.302-.218.29-.204-8.66-.202-6.617.002-8.197.011-8.316.048zm16.004.699c-.029.027-1.67 1.257-3.648 2.735-2.414 1.802-3.64 2.698-3.731 2.723a1.22 1.22 0 01-.587 0c-.09-.025-1.318-.92-3.732-2.723a679.082 679.082 0 01-3.647-2.735c-.044-.041 1.104-.048 7.672-.048s7.716.007 7.673.048zM5.5 4.982c2.043 1.526 3.782 2.802 3.865 2.835.084.033.262.08.396.102.295.05.656.001.931-.127.097-.045 1.848-1.333 3.89-2.86l3.714-2.78.009 2.406c.005 1.324.005 3.487 0 4.808l-.009 2.402-1.952-2.405c-1.074-1.322-1.98-2.419-2.013-2.437a.42.42 0 00-.363.023.37.37 0 00-.137.357c.012.048.915 1.187 2.006 2.53l1.983 2.444-3.907.01c-2.149.004-5.665.004-7.814 0l-3.907-.01 1.984-2.443c1.09-1.344 1.994-2.483 2.006-2.531a.37.37 0 00-.137-.357.445.445 0 00-.35-.033c-.03.012-.93 1.097-1.996 2.412a898.461 898.461 0 01-1.97 2.424c-.017.02-.03-2.05-.03-4.783 0-3.844.009-4.811.044-4.79.024.015 1.715 1.276 3.757 2.803z"/></svg><svg viewBox="0 0 16 16" id="pencil" xmlns="http://www.w3.org/2000/svg"><path fill-rule="evenodd" clip-rule="evenodd" d="M9.726.258C9.06.942 8.93 1.13 8.46 2.072l-.324.649 2.571 2.571 2.571 2.572.65-.324c.884-.441 1.092-.583 1.626-1.11L16 5.99l-2.995-2.995A394.196 394.196 0 009.995 0c-.01 0-.13.116-.269.258zm-3.374 4c-.913.521-1.953.796-2.914.772-.407-.011-.449-.007-.465.044C2.92 5.24-.006 15.994 0 16c.006.006 10.76-2.92 10.924-2.973.05-.016.056-.073.058-.62.001-.495.014-.659.07-.918a6.28 6.28 0 01.685-1.838l.173-.309L9.287 6.72A297.941 297.941 0 006.65 4.097c-.008 0-.142.073-.297.162z"/></svg><svg viewBox="0 0 24 24" id="pencil2" xmlns="http://www.w3.org/2000/svg"><path fill-rule="evenodd" clip-rule="evenodd" d="M21.203.038c-.259.079-.424.21-1.032.821l-.634.637 1.49 1.49 1.491 1.49.638-.634c.35-.348.683-.718.738-.82.136-.254.142-.766.014-1.033-.053-.11-.438-.535-.916-1.014-.703-.704-.86-.838-1.057-.904-.242-.08-.532-.094-.732-.033zm-7.15 6.938l-4.45 4.448-.54 1.618c-.296.89-.538 1.67-.539 1.733 0 .225.18.507.393.61a.96.96 0 00.31.097c.061 0 .842-.243 1.735-.54l1.624-.539 4.461-4.459 4.462-4.459-1.48-1.478c-.813-.813-1.489-1.479-1.502-1.479-.013 0-2.026 2.002-4.474 4.448zM2.066 3.89A2.63 2.63 0 00.109 5.616L0 5.93v16.004l.107.31c.27.778.87 1.379 1.645 1.646l.314.109h16.015l.314-.108c.768-.266 1.342-.835 1.646-1.632l.106-.278.013-6.57.012-6.57-3.347 3.335c-3.067 3.056-3.372 3.347-3.652 3.479-.55.26-3.443 1.19-3.793 1.219a2.119 2.119 0 01-2.248-2.295c.034-.325.988-3.26 1.218-3.745.132-.28.423-.584 3.48-3.649l3.336-3.344-6.456.006c-3.55.002-6.54.022-6.644.043z"/></svg><svg viewBox="0 0 20 20" id="phone" xmlns="http://www.w3.org/2000/svg"><path fill-rule="evenodd" clip-rule="evenodd" d="M2.087 1.399C1.322 2.168.639 2.88.57 2.983a4.015 4.015 0 00-.478 1.065c-.113.415-.124 1.425-.021 1.944.508 2.57 2.627 5.868 5.74 8.93 2.695 2.65 5.32 4.343 7.6 4.9.577.141.896.179 1.506.178.634 0 .925-.05 1.45-.248.572-.215.878-.47 2.43-2.025L20 16.523l-2.6-2.6-2.6-2.6-1.438 1.436c-.79.79-1.452 1.437-1.47 1.437-.092 0-1.248-.866-1.98-1.484-1.111-.94-2.848-2.809-3.868-4.164l-.321-.427 1.469-1.47L8.66 5.183l-2.59-2.59L3.477 0l-1.39 1.399z"/></svg><svg viewBox="0 0 24 24" id="plus" xmlns="http://www.w3.org/2000/svg"><path fill-rule="evenodd" clip-rule="evenodd" d="M11.096.023c-1.779.17-3.101.546-4.6 1.307-1.773.902-3.365 2.328-4.526 4.055C1.479 6.116.878 7.351.59 8.223a13.557 13.557 0 00-.531 2.297c-.079.552-.079 2.404 0 2.955.197 1.382.562 2.592 1.133 3.752.645 1.313 1.278 2.195 2.322 3.239 1.033 1.032 1.93 1.676 3.194 2.296.882.433 1.452.643 2.347.867 2.347.589 4.7.476 6.994-.335.695-.245 1.908-.853 2.532-1.268a12.766 12.766 0 003.609-3.697c.338-.532.881-1.654 1.103-2.278 1.102-3.104.91-6.436-.538-9.348a11.588 11.588 0 00-2.15-3.04c-1.014-1.049-2.008-1.772-3.338-2.429A11.49 11.49 0 0013.044.04c-.479-.045-1.566-.054-1.948-.017zm1.425 5.88c.095.063.23.198.3.299l.129.183.023 2.302.024 2.303 2.303.023 2.304.023.184.129c.1.07.236.206.3.301.1.147.118.227.118.532 0 .305-.018.384-.117.532-.065.095-.2.23-.301.301l-.184.128-2.304.024-2.303.023-.024 2.302-.023 2.302-.129.184c-.07.1-.206.236-.301.3-.148.1-.227.118-.532.118-.306 0-.385-.018-.532-.117a1.407 1.407 0 01-.302-.301l-.128-.184-.024-2.302-.023-2.302-2.304-.023-2.304-.024-.183-.128c-.294-.205-.413-.42-.433-.781-.02-.385.11-.662.41-.873l.2-.14 2.306-.024 2.308-.024.023-2.305.024-2.306.14-.2c.211-.3.489-.429.874-.408.234.012.352.045.482.132z"/></svg><svg viewBox="0 0 23 22" id="search" xmlns="http://www.w3.org/2000/svg"><path fill-rule="evenodd" clip-rule="evenodd" d="M9.993.012C8.406.194 7.428.464 6.285 1.038a9.362 9.362 0 00-2.435 1.72c-3.123 2.991-3.938 7.66-2.008 11.5 2.11 4.197 6.793 6.335 11.323 5.169 1.245-.321 2.32-.85 3.604-1.773.054-.039.57.447 2.195 2.064 2.345 2.333 2.34 2.329 2.88 2.265.68-.08 1.101-.728.918-1.41-.061-.225-.237-.416-2.208-2.393-1.63-1.636-2.129-2.165-2.09-2.218 1.005-1.381 1.593-2.664 1.907-4.16.165-.784.227-2.26.129-3.056-.172-1.398-.64-2.787-1.316-3.902-1.038-1.715-2.445-3-4.222-3.858-.972-.469-1.775-.72-2.795-.877-.5-.076-1.832-.136-2.174-.097zm2.227 2.331c2.02.429 3.698 1.553 4.83 3.236 1.75 2.602 1.755 5.942.012 8.573-.462.699-1.405 1.64-2.104 2.102a7.676 7.676 0 01-4.878 1.27c-2.707-.222-5.044-1.786-6.248-4.182a7.698 7.698 0 012.742-9.974c.842-.54 2.042-.971 3.114-1.12.56-.079 1.962-.026 2.532.095z"/></svg><svg viewBox="0 0 18 19" id="settings" xmlns="http://www.w3.org/2000/svg"><path fill-rule="evenodd" clip-rule="evenodd" d="M7.28.068A1.35 1.35 0 006.578.6c-.133.2-.182.372-.438 1.509l-.096.427-.42.214c-.23.118-.578.321-.772.452l-.353.238-.748-.24c-.86-.276-1.12-.316-1.448-.22-.257.075-.565.271-.69.439-.2.27-1.499 2.585-1.554 2.772-.077.264-.075.502.009.772.1.327.206.459.856 1.068l.594.557.001.91.001.91-.594.557c-.327.306-.636.615-.688.687-.12.166-.238.552-.238.777 0 .096.027.266.06.377.082.281 1.46 2.67 1.65 2.864.084.084.26.204.391.267.216.104.272.115.571.11.303-.003.399-.025 1.081-.248l.75-.244.348.237c.191.13.535.332.762.448.228.117.42.217.426.222.006.006.091.367.19.803.097.436.197.843.22.904.075.192.32.484.505.604.356.228.43.236 2.139.224l1.543-.011.245-.122c.285-.141.581-.443.673-.685.033-.087.138-.508.234-.934l.173-.775.41-.21a9.47 9.47 0 00.777-.458l.368-.247.752.246c.691.225.78.246 1.085.248.305.003.354-.007.579-.119a1.38 1.38 0 00.404-.301c.174-.197 1.54-2.568 1.618-2.807.073-.226.057-.633-.035-.876-.113-.296-.211-.412-.85-.999l-.569-.522V8.572l.568-.523c.612-.564.771-.756.87-1.052.08-.235.078-.65-.002-.872-.095-.265-1.428-2.562-1.6-2.757a1.366 1.366 0 00-.404-.302c-.225-.111-.275-.122-.579-.12-.306.003-.392.022-1.085.249l-.754.246-.367-.247a9.447 9.447 0 00-.776-.456l-.408-.21-.172-.77c-.095-.423-.2-.844-.235-.934-.094-.248-.387-.55-.675-.692l-.245-.121L9.07.003C7.597-.005 7.488-.001 7.28.068zm3.153 1.17c.025.03.142.48.258 1 .129.575.241.993.288 1.07.082.132.154.177.595.364.38.161.777.396 1.216.72.24.177.418.28.508.296.11.018.323-.036 1.076-.276.516-.164.966-.298 1-.298.034 0 .078.02.099.046.043.054 1.223 2.106 1.312 2.282.033.065.05.144.038.176-.012.032-.345.36-.74.73-.395.371-.744.73-.776.798-.051.108-.053.175-.016.525a8.34 8.34 0 010 1.648c-.038.363-.036.406.028.537.044.09.335.391.765.795.382.358.71.68.73.715.024.045.015.101-.028.186-.096.186-1.272 2.232-1.313 2.284a.14.14 0 01-.097.046c-.033 0-.48-.133-.992-.297-.513-.163-.965-.297-1.006-.297-.132 0-.304.096-.661.368a5.503 5.503 0 01-.885.528c-.785.385-.786.385-.861.513-.038.065-.165.544-.282 1.064-.117.52-.233.97-.258 1-.038.047-.25.055-1.417.055-1.26 0-1.377-.005-1.43-.065-.03-.036-.15-.49-.266-1.012a18.45 18.45 0 00-.24-1.002c-.068-.125-.224-.229-.583-.387a6.672 6.672 0 01-1.315-.781c-.188-.141-.367-.245-.448-.26-.112-.022-.312.03-1.11.281-.745.236-.987.299-1.035.269-.034-.021-.367-.57-.74-1.219-.575-1-.674-1.193-.645-1.264.018-.047.35-.38.74-.74.832-.77.852-.801.788-1.262-.05-.37-.05-1.382 0-1.752.064-.46.044-.492-.788-1.262-.39-.36-.722-.693-.74-.74-.03-.073.066-.26.644-1.265.374-.648.707-1.196.74-1.217.047-.029.299.037 1.034.269.8.252.998.303 1.11.281.084-.016.266-.122.472-.276a6.202 6.202 0 011.294-.764c.58-.254.56-.22.82-1.387.12-.539.242-1.002.27-1.03.04-.04.315-.05 1.425-.05 1.19 0 1.381.007 1.422.056zm-1.734 4.31l-.361.054a4.019 4.019 0 00-1.182.408c-.963.52-1.651 1.396-1.95 2.48-.09.326-.1.416-.1 1.008 0 .59.01.683.098 1.003.451 1.626 1.746 2.739 3.413 2.934.453.053 1 .004 1.468-.133a3.994 3.994 0 002.733-2.83c.084-.32.095-.432.095-.974s-.01-.654-.095-.973a3.99 3.99 0 00-2.73-2.83c-.438-.128-1.068-.195-1.39-.146zm1.021 1.28c.8.206 1.535.87 1.845 1.669.144.37.172.532.172 1.002s-.028.632-.172 1.003c-.143.369-.329.645-.65.966-.542.541-1.131.786-1.903.789a2.68 2.68 0 01-2.469-1.551 2.609 2.609 0 01-.277-1.207c0-1.172.711-2.199 1.8-2.599a2.714 2.714 0 011.654-.072z"/></svg><svg viewBox="0 0 23 21" id="spiner" xmlns="http://www.w3.org/2000/svg"><path d="M10.212.322c.639-.093 1.86-.097 2.498-.008.583.081 1.425.296 1.978.504.89.336 2.113 1.094 2.88 1.79l.152.138-.728.922c-.463.586-.907 1.148-1.014 1.281l-.16-.14a6.504 6.504 0 00-3.202-1.567c-.492-.091-.708-.103-1.35-.08-1.81.067-3.294.768-4.58 2.154-1.267 1.366-1.916 2.972-1.983 4.89l-.027.766-.009.259H6.5l.088.087c.131.13.148.313.076.434l-.001.003a64.382 64.382 0 01-.55.706 255.394 255.394 0 01-2.629 3.246c-.087-.104-.202-.24-.335-.402A217.253 217.253 0 01.86 12.48a56.72 56.72 0 01-.52-.665 2.504 2.504 0 01-.047-.065c-.073-.12-.056-.302.076-.433l.088-.087h1.586v-.88c0-1.79.502-3.686 1.38-5.219 1.508-2.63 4.029-4.41 6.79-4.81zM3.486 16.084c.049-.01 3.28-4.014 3.393-4.204a.612.612 0 00-.115-.74l-.161-.16-3.117 5.104zm12.928-5.439c-.12-.119-.145-.288-.102-.39l.028-.039c.025-.034.06-.082.107-.142.092-.12.221-.286.379-.487a173.239 173.239 0 012.399-2.974c.125-.15.231-.275.313-.37a425.527 425.527 0 013.036 3.795l.105.134.03.041c.07.12.052.302-.078.43l-.088.088h-1.586v.391c0 .153-.036.485-.093.866a14.44 14.44 0 01-.195 1.063c-.42 1.775-1.181 3.238-2.389 4.586-.816.911-1.597 1.53-2.606 2.07-2.673 1.426-5.927 1.387-8.544-.1-.215-.122-.55-.343-.85-.555a11.462 11.462 0 01-.495-.368l.016-.024c.11-.162.337-.452.778-1.01a218.094 218.094 0 01.915-1.148l.029-.036c.048.033.11.078.194.139l.147-.202-.147.202c1.087.79 2.203 1.17 3.571 1.222.615.023.84.01 1.314-.077l-.046-.246.046.246c1.476-.274 2.662-.938 3.712-2.076 1.146-1.24 1.748-2.6 1.972-4.432l.029-.23.034-.281H16.5l-.086-.086z"/></svg><svg viewBox="0 0 18 15" id="twitter" xmlns="http://www.w3.org/2000/svg"><path fill-rule="evenodd" clip-rule="evenodd" d="M16.529.079C15.349.505.81 5.992.596 6.09c-.712.332-.795.77-.202 1.065.057.029 1.04.338 2.186.687l2.083.635 4.73-2.906c2.601-1.598 4.782-2.924 4.846-2.946.16-.055.299-.05.363.013.045.045.047.067.011.132-.023.043-1.75 1.584-3.838 3.425a428.342 428.342 0 00-3.808 3.377c-.007.018-.078.937-.157 2.042l-.144 2.01.156-.02c.087-.012.223-.056.304-.098.08-.042.624-.526 1.208-1.075.583-.549 1.081-1.006 1.106-1.015.024-.01.954.637 2.065 1.437 1.11.8 2.107 1.493 2.213 1.542.28.126.594.139.798.031.182-.095.36-.334.435-.582.03-.096.665-2.978 1.412-6.406 1.244-5.707 1.359-6.26 1.36-6.555 0-.28-.012-.347-.089-.494A.8.8 0 0017.4.118c-.205-.142-.544-.157-.87-.04z"/></svg><svg viewBox="0 0 21 21" id="user" xmlns="http://www.w3.org/2000/svg"><path fill-rule="evenodd" clip-rule="evenodd" d="M9.988.01l-.445.061c-1.01.137-2.216.706-3.037 1.432a6.257 6.257 0 00-1.992 3.595c-.08.489-.07 1.6.02 2.049.294 1.48 1.128 2.852 2.254 3.706l.28.213-.117.045c-.493.187-.71.282-1.128.492a10.509 10.509 0 00-4.353 4.061C.608 17.111.128 18.723.028 20.507L0 21h1.651v-.2c0-1.392.578-3.314 1.351-4.495 1.194-1.825 2.791-3.077 4.738-3.715 1.85-.606 3.67-.606 5.52 0 1.947.638 3.544 1.89 4.738 3.715.773 1.18 1.351 3.104 1.351 4.494V21H21l-.028-.493c-.1-1.784-.58-3.396-1.442-4.843a10.51 10.51 0 00-4.353-4.061 9.96 9.96 0 00-1.128-.492l-.118-.045.28-.213c1.127-.854 1.961-2.225 2.255-3.706.09-.45.1-1.56.02-2.05a6.36 6.36 0 00-1.445-3.045A6.195 6.195 0 0011.568.085c-.316-.058-1.357-.107-1.58-.075zm1.205 1.68c2.41.392 4.057 2.666 3.669 5.065-.391 2.414-2.66 4.064-5.055 3.675-2.41-.391-4.057-2.665-3.669-5.064.391-2.414 2.66-4.064 5.055-3.675z"/></svg></svg>