<svg width="22" height="23" viewBox="0 0 22 23" fill="none" xmlns="http://www.w3.org/2000/svg">
<path fill-rule="evenodd" clip-rule="evenodd" d="M9.98791 2.01008C9.92031 2.01977 9.72018 2.04735 9.54312 2.07136C8.53376 2.20828 7.32665 2.77737 6.50566 3.50338C5.46873 4.4204 4.73713 5.74087 4.51422 7.09778C4.43388 7.58685 4.44433 8.69738 4.53352 9.14659C4.82767 10.6278 5.66164 11.9988 6.78825 12.8532L7.06863 13.0659L6.95102 13.1107C6.45809 13.2982 6.24158 13.3927 5.82293 13.6028C4.00278 14.5162 2.5218 15.8979 1.47004 17.664C0.608492 19.1106 0.128474 20.7227 0.027776 22.5074L0 23H0.825497H1.65099V22.7991C1.65099 21.4085 2.22897 19.4857 3.00211 18.3045C4.19631 16.4798 5.79298 15.2281 7.7403 14.5901C9.59019 13.9839 11.4098 13.9839 13.2597 14.5901C15.207 15.2281 16.8037 16.4798 17.9979 18.3045C18.771 19.4857 19.349 21.4085 19.349 22.7991V23H20.1745H21L20.9722 22.5074C20.8715 20.7227 20.3915 19.1106 19.53 17.664C18.4782 15.8979 16.9972 14.5162 15.1771 13.6028C14.7584 13.3927 14.5419 13.2982 14.049 13.1107L13.9314 13.0659L14.2117 12.8532C15.3384 11.9988 16.1723 10.6278 16.4665 9.14659C16.5557 8.69738 16.5661 7.58685 16.4858 7.09778C16.3079 6.01474 15.7657 4.87125 15.0414 4.05155C14.1464 3.03865 12.883 2.32315 11.5683 2.08466C11.252 2.02728 10.2107 1.97815 9.98791 2.01008ZM11.193 3.69082C13.6031 4.08241 15.2499 6.35569 14.8616 8.75472C14.4707 11.1692 12.2016 12.8191 9.80699 12.4301C7.39695 12.0385 5.75005 9.76519 6.13838 7.36616C6.52917 4.95207 8.79874 3.30182 11.193 3.69082Z" fill="#1A1A1A"/>
<circle cx="17" cy="5" r="4" fill="#D79533" stroke="white" stroke-width="2"/>
</svg>
