<svg width="58" height="45" viewBox="0 0 58 45" fill="none" xmlns="http://www.w3.org/2000/svg">
<g opacity="0.6">
<path d="M15.9751 45C12.6142 44.9858 9.74248 44.0972 7.36004 42.3341C4.9776 40.5711 3.15531 38.0047 1.89319 34.6351C0.631063 31.2654 0 27.2062 0 22.4573C0 17.7227 0.631063 13.6777 1.89319 10.3223C3.1695 6.96682 4.99887 4.40758 7.38131 2.64455C9.77793 0.881517 12.6425 0 15.9751 0C19.3077 0 22.1652 0.888625 24.5476 2.66588C26.9301 4.42891 28.7524 6.98815 30.0145 10.3436C31.2908 13.6848 31.9289 17.7227 31.9289 22.4573C31.9289 27.2204 31.2979 31.2867 30.0358 34.6564C28.7736 38.0118 26.9514 40.5782 24.5689 42.3554C22.1865 44.1185 19.3219 45 15.9751 45ZM15.9751 39.3057C18.9248 39.3057 21.2292 37.8626 22.8884 34.9763C24.5618 32.09 25.3985 27.9171 25.3985 22.4573C25.3985 18.8318 25.0156 15.7678 24.2498 13.2654C23.4982 10.7488 22.4134 8.8436 20.9953 7.54976C19.5913 6.24171 17.9179 5.58768 15.9751 5.58768C13.0396 5.58768 10.7352 7.03791 9.06178 9.93839C7.3884 12.8389 6.54462 17.0118 6.53044 22.4573C6.53044 26.0972 6.90624 29.1754 7.65784 31.6919C8.42363 34.1943 9.50849 36.0924 10.9124 37.3863C12.3164 38.6659 14.0039 39.3057 15.9751 39.3057Z" fill="#D0D0D0"/>
<path d="M58 0.597157V44.2749H51.4057V7.20853H51.1505L40.7273 14.0332V7.72038L51.5972 0.597157H58Z" fill="#D0D0D0"/>
</g>
</svg>
