<svg width="71" height="46" viewBox="0 0 71 46" fill="none" xmlns="http://www.w3.org/2000/svg">
<g opacity="0.6">
<path d="M16.3295 45.767C12.9756 45.7528 10.1099 44.8642 7.73239 43.1012C5.35492 41.3381 3.53643 38.7718 2.27694 35.4021C1.01744 32.0324 0.387695 27.9732 0.387695 23.2244C0.387695 18.4898 1.01744 14.4448 2.27694 11.0893C3.55059 7.73387 5.37615 5.17463 7.75362 3.4116C10.1452 1.64856 13.0039 0.767044 16.3295 0.767044C19.6551 0.767044 22.5067 1.65567 24.8842 3.43292C27.2616 5.19595 29.0801 7.7552 30.3396 11.1106C31.6133 14.4519 32.2501 18.4898 32.2501 23.2244C32.2501 27.9874 31.6204 32.0538 30.3609 35.4234C29.1014 38.7789 27.2829 41.3452 24.9054 43.1225C22.5279 44.8855 19.6693 45.767 16.3295 45.767ZM16.3295 40.0727C19.2731 40.0727 21.5727 38.6296 23.2284 35.7433C24.8983 32.8571 25.7333 28.6841 25.7333 23.2244C25.7333 19.5988 25.3512 16.5348 24.587 14.0324C23.837 11.5159 22.7544 9.61065 21.3392 8.31681C19.9382 7.00875 18.2683 6.35472 16.3295 6.35472C13.4001 6.35472 11.1005 7.80496 9.43059 10.7054C7.7607 13.6059 6.91867 17.7789 6.90452 23.2244C6.90452 26.8642 7.27954 29.9424 8.02958 32.459C8.79377 34.9614 9.87637 36.8595 11.2774 38.1533C12.6784 39.4329 14.3624 40.0727 16.3295 40.0727Z" fill="#D0D0D0"/>
<path d="M41.7731 45.0419V40.2647L56.4837 24.9519C58.0545 23.2884 59.3494 21.831 60.3683 20.5798C61.4014 19.3144 62.1727 18.113 62.6821 16.9756C63.1916 15.8381 63.4463 14.6296 63.4463 13.35C63.4463 11.8997 63.1067 10.6486 62.4274 9.59643C61.7481 8.53008 60.8212 7.71254 59.6466 7.14382C58.472 6.56088 57.1488 6.26941 55.6771 6.26941C54.1204 6.26941 52.7618 6.58932 51.6014 7.22913C50.441 7.86894 49.5494 8.77178 48.9267 9.93766C48.3041 11.1035 47.9927 12.4685 47.9927 14.0324H41.7306C41.7306 11.3737 42.3392 9.04904 43.5562 7.05852C44.7732 5.06799 46.4431 3.52534 48.5659 2.43055C50.6886 1.32155 53.1015 0.767044 55.8044 0.767044C58.5357 0.767044 60.9415 1.31444 63.0218 2.40922C65.1162 3.48979 66.7507 4.96846 67.9253 6.84524C69.0999 8.7078 69.6872 10.8121 69.6872 13.158C69.6872 14.7789 69.3829 16.3642 68.7744 17.914C68.18 19.4637 67.1399 21.1912 65.654 23.0964C64.1681 24.9874 62.1019 27.2836 59.4556 29.9851L50.816 39.0704V39.3903H70.3877V45.0419H41.7731Z" fill="#D0D0D0"/>
</g>
</svg>
