<svg width="73" height="46" viewBox="0 0 73 46" fill="none" xmlns="http://www.w3.org/2000/svg">
<g opacity="0.6">
<path d="M16.354 45.767C12.9949 45.7528 10.1248 44.8642 7.74369 43.1012C5.36256 41.3381 3.54128 38.7718 2.27984 35.4021C1.01841 32.0324 0.387695 27.9732 0.387695 23.2244C0.387695 18.4898 1.01841 14.4448 2.27984 11.0893C3.55545 7.73385 5.38382 5.17461 7.76495 3.41158C10.1603 1.64855 13.0233 0.767029 16.354 0.767029C19.6848 0.767029 22.5407 1.65565 24.9218 3.4329C27.303 5.19594 29.1243 7.75518 30.3857 11.1106C31.6613 14.4519 32.2991 18.4898 32.2991 23.2244C32.2991 27.9874 31.6684 32.0538 30.4069 35.4234C29.1455 38.7789 27.3242 41.3452 24.9431 43.1225C22.562 44.8855 19.6989 45.767 16.354 45.767ZM16.354 40.0727C19.3021 40.0727 21.6053 38.6296 23.2636 35.7433C24.936 32.8571 25.7722 28.6841 25.7722 23.2244C25.7722 19.5988 25.3896 16.5348 24.6242 14.0324C23.873 11.5158 22.7887 9.61063 21.3714 8.31679C19.9682 7.00873 18.2958 6.3547 16.354 6.3547C13.4201 6.3547 11.117 7.80494 9.44449 10.7054C7.77203 13.6059 6.92872 17.7789 6.91454 23.2244C6.91454 26.8642 7.29014 29.9424 8.04133 32.459C8.80669 34.9613 9.89096 36.8594 11.2941 38.1533C12.6973 39.4329 14.3839 40.0727 16.354 40.0727Z" fill="#D0D0D0"/>
<path d="M56.9952 45.6391C54.0754 45.6391 51.4675 45.1343 49.1715 44.1249C46.8895 43.1154 45.0824 41.7149 43.7501 39.9234C42.432 38.1177 41.7233 36.0277 41.6241 33.6533H48.2998C48.3848 34.9471 48.8171 36.0703 49.5967 37.023C50.3904 37.9613 51.425 38.6865 52.7006 39.1983C53.9762 39.7102 55.3936 39.9661 56.9526 39.9661C58.6676 39.9661 60.1842 39.6675 61.5023 39.0703C62.8346 38.4732 63.8763 37.6414 64.6275 36.5751C65.3787 35.4945 65.7543 34.2504 65.7543 32.8429C65.7543 31.3784 65.3787 30.0917 64.6275 28.9827C63.8905 27.8594 62.8063 26.9779 61.3747 26.3381C59.9574 25.6983 58.2424 25.3784 56.2298 25.3784H52.5518V20.004H56.2298C57.8456 20.004 59.2629 19.7125 60.4818 19.1296C61.7149 18.5466 62.6787 17.7362 63.3732 16.6983C64.0677 15.6462 64.4149 14.4163 64.4149 13.0087C64.4149 11.658 64.1102 10.485 63.5008 9.48978C62.9055 8.4803 62.0551 7.6912 60.9495 7.12248C59.8582 6.55376 58.5684 6.2694 57.0802 6.2694C55.6629 6.2694 54.3377 6.53243 53.1046 7.0585C51.8857 7.57035 50.8935 8.30968 50.1282 9.27651C49.3628 10.2291 48.9518 11.3737 48.8951 12.7102H42.5383C42.6092 10.35 43.3037 8.27414 44.6218 6.48267C45.9541 4.6912 47.7116 3.29072 49.8943 2.28125C52.077 1.27177 54.5006 0.767029 57.1652 0.767029C59.9574 0.767029 62.3669 1.31442 64.3937 2.40921C66.4346 3.48978 68.0079 4.93291 69.1134 6.73859C70.2331 8.54428 70.7859 10.5206 70.7717 12.6675C70.7859 15.113 70.1056 17.1888 68.7307 18.895C67.3701 20.6012 65.5559 21.7457 63.2882 22.3286V22.6699C66.1795 23.1106 68.4189 24.2623 70.0063 26.1248C71.6079 27.9874 72.4016 30.2978 72.3875 33.0561C72.4016 35.459 71.7355 37.613 70.389 39.5182C69.0567 41.4234 67.2354 42.9234 64.9252 44.0182C62.6149 45.0988 59.9716 45.6391 56.9952 45.6391Z" fill="#D0D0D0"/>
</g>
</svg>
