<svg width="48" height="48" viewBox="0 0 48 48" fill="none" xmlns="http://www.w3.org/2000/svg">
<path opacity="0.6" fill-rule="evenodd" clip-rule="evenodd" d="M24 48C37.2548 48 48 37.2548 48 24C48 10.7452 37.2548 0 24 0C10.7452 0 0 10.7452 0 24C0 37.2548 10.7452 48 24 48ZM16.983 29.5341C17.6875 30.0114 18.5284 30.2519 19.5057 30.2557C20.483 30.2557 21.322 30.017 22.0227 29.5398C22.7235 29.0625 23.2614 28.3712 23.6364 27.4659C24.0152 26.5606 24.2045 25.4697 24.2045 24.1932C24.2083 22.9242 24.0208 21.8447 23.642 20.9545C23.2633 20.0606 22.7216 19.3788 22.017 18.9091C21.3163 18.4394 20.4792 18.2045 19.5057 18.2045C18.5322 18.2045 17.6932 18.4394 16.9886 18.9091C16.2879 19.375 15.7481 20.0549 15.3693 20.9489C14.9943 21.8428 14.8068 22.9242 14.8068 24.1932C14.803 25.4659 14.9886 26.5549 15.3636 27.4602C15.7424 28.3655 16.2822 29.0568 16.983 29.5341ZM21.1023 27.2102C20.7045 27.8807 20.1723 28.2159 19.5057 28.2159C19.0625 28.2159 18.6761 28.0682 18.3466 27.7727C18.017 27.4735 17.7614 27.0265 17.5795 26.4318C17.4015 25.8333 17.3125 25.0871 17.3125 24.1932C17.3163 22.8712 17.517 21.8788 17.9148 21.2159C18.3125 20.553 18.8428 20.2216 19.5057 20.2216C19.9489 20.2216 20.3333 20.3693 20.6591 20.6648C20.9886 20.9602 21.2424 21.4015 21.4205 21.9886C21.6023 22.5758 21.6932 23.3106 21.6932 24.1932C21.697 25.5341 21.5 26.5398 21.1023 27.2102ZM32.0213 30V18.3636H29.7088L26.8281 20.1875V22.3693L29.4929 20.6989H29.5611V30H32.0213Z" fill="#D9D9D9"/>
</svg>
