<svg width="15" height="15" viewBox="0 0 15 15" fill="none" xmlns="http://www.w3.org/2000/svg">
<path fill-rule="evenodd" clip-rule="evenodd" d="M10.4499 0.0218531C10.0815 0.0782821 9.61726 0.225275 9.27247 0.394527C8.84592 0.603957 2.29072 5.03271 1.87275 5.39382C0.423006 6.64647 -0.275109 8.67624 0.100213 10.5474C0.650054 13.2888 3.17277 15.1918 5.9821 14.9846C6.70892 14.931 7.407 14.741 8.04517 14.4232C8.3993 14.2468 12.6254 11.4992 12.8335 11.31C13.123 11.0469 13.0975 10.6599 12.7751 10.4238C12.7017 10.3701 12.624 10.3513 12.4764 10.3514L12.277 10.3516L10.1075 11.7833C8.91426 12.5707 7.82329 13.2721 7.6831 13.3419C5.96534 14.1969 3.9537 13.9013 2.58509 12.5928C1.87169 11.9107 1.43509 11.0906 1.27586 10.1337C1.19241 9.63213 1.22509 8.87362 1.35108 8.3892C1.58425 7.49249 2.08444 6.68252 2.74366 6.1341C3.14017 5.80424 9.60201 1.44956 9.8845 1.32187C10.2986 1.13463 10.5673 1.0807 11.0824 1.0815C11.4503 1.08206 11.5938 1.09754 11.8202 1.1612C12.4339 1.33375 13.0379 1.75288 13.3991 2.25686C14.1898 3.35988 14.0838 4.84068 13.1434 5.8273C12.9396 6.0411 12.4947 6.34651 9.69505 8.19464C7.92715 9.36162 6.43265 10.3424 6.37393 10.374C6.31519 10.4057 6.17626 10.4482 6.06516 10.4685C5.55825 10.5611 5.03975 10.2892 4.81488 9.81295C4.74152 9.65748 4.72483 9.57029 4.72522 9.34416C4.7261 8.86168 4.8619 8.66201 5.48795 8.22266C6.15616 7.75373 8.50851 6.0386 8.67119 5.90171C8.83471 5.76413 8.92199 5.60519 8.92072 5.44733C8.91953 5.29732 8.80087 5.07431 8.67516 4.98583C8.52565 4.88061 8.26762 4.85519 8.1192 4.93103C8.05803 4.96228 7.20068 5.57529 6.21392 6.29321C4.27084 7.70702 4.17123 7.7937 3.94503 8.26766C3.7815 8.6103 3.71949 8.87828 3.71879 9.24512C3.71801 9.65099 3.79169 9.9614 3.9685 10.2972C4.51423 11.3339 5.75979 11.7783 6.8723 11.3333C6.98702 11.2874 8.48904 10.3236 10.2918 9.1392C13.2777 7.17742 13.5296 7.00435 13.8272 6.70974C14.595 5.9497 15 4.98871 15 3.92698C15 2.86813 14.5927 1.90182 13.8272 1.14435C13.2902 0.61302 12.5859 0.227046 11.8729 0.0733858C11.5594 0.00584473 10.7465 -0.0236025 10.4499 0.0218531Z" fill="#1A1A1A"/>
</svg>
