<svg  width='15' height='16' viewBox="0 0 15 16" xmlns="http://www.w3.org/2000/svg" id='arrow-down'>
<path fill-rule="evenodd" clip-rule="evenodd" d="M5.76306 4.26198C5.76303 9.04882 5.78185 8.6804 5.53107 8.80171C5.29991 8.91354 5.30673 8.91885 3.83026 7.47672C3.0901 6.75377 2.47249 6.16228 2.45784 6.16228C2.44316 6.16228 1.88417 6.70425 1.21559 7.36665L0 8.57101L3.75002 12.2855L7.5 16L11.25 12.2855L15 8.57101L13.7844 7.36665C13.1158 6.70425 12.5568 6.16228 12.5422 6.16228C12.5275 6.16228 11.9099 6.75377 11.1697 7.47672C9.71275 8.8998 9.70726 8.90415 9.48257 8.81115C9.4196 8.7851 9.34213 8.72454 9.3104 8.67655C9.25529 8.59325 9.25229 8.39393 9.24433 4.29464L9.23599 0H7.49956H5.76312L5.76306 4.26198Z" />
</svg>
