<svg  viewBox="0 0 24 25"  xmlns="http://www.w3.org/2000/svg" id='attach-icon'>
<path fill-rule="evenodd" clip-rule="evenodd" d="M10.8516 0.677609C7.0989 1.06852 3.80998 3.11441 1.81206 6.30079C-1.02143 10.8198 -0.486499 16.8195 3.09845 20.7284C5.09093 22.9009 7.55849 24.193 10.5228 24.616C11.08 24.6955 12.9228 24.6942 13.5014 24.6139C16.4208 24.2088 18.8863 22.9196 20.8754 20.7581C21.6556 19.9104 22.2728 18.9898 22.8208 17.8566C23.5537 16.3413 23.9308 14.7989 23.9924 13.0642C24.0904 10.3017 23.2425 7.63062 21.5528 5.37983C21.1197 4.80276 20.121 3.77089 19.5499 3.31038C17.8418 1.93287 15.8562 1.06575 13.6656 0.740614C13.0901 0.655181 11.4247 0.617942 10.8516 0.677609ZM12.4874 5.58286C12.7676 5.70017 12.9293 6.02573 12.8699 6.35256C12.8417 6.50762 12.4908 6.87771 9.91634 9.46723C8.30948 11.0835 6.93125 12.5011 6.85352 12.6175C6.13753 13.69 5.99019 14.9766 6.45115 16.1308C6.82951 17.0781 7.70827 17.9096 8.67076 18.231C9.88984 18.6381 11.1512 18.4099 12.1645 17.5988C12.6487 17.2113 17.3697 12.4272 17.511 12.1809C18.2966 10.8117 17.5018 9.10819 15.956 8.84775C15.5351 8.77685 15.0931 8.83722 14.6684 9.0236C14.392 9.14491 14.1929 9.33059 12.0538 11.4622C10.7216 12.7897 9.71079 13.8337 9.67327 13.9208C9.41715 14.5151 9.93773 15.1304 10.5579 14.9664C10.733 14.9201 10.9951 14.6763 12.704 12.971C14.7665 10.9128 14.7535 10.9234 15.1186 10.9921C15.5608 11.0752 15.8013 11.6073 15.5692 11.9889C15.4387 12.2033 11.9872 15.6874 11.6638 15.931C10.7721 16.603 9.57734 16.5054 8.81608 15.6986C8.14305 14.9853 8.03639 13.9192 8.55424 13.0813C8.71059 12.8284 12.8792 8.6207 13.3485 8.24215C14.02 7.70049 14.7448 7.44542 15.6122 7.44542C18.1038 7.44542 19.826 9.88758 18.9948 12.2421C18.7427 12.9561 18.7184 12.9842 15.8711 15.8533C14.4001 17.3356 13.0593 18.6528 12.8916 18.7804C10.9158 20.2841 8.07705 20.0936 6.30921 18.3388C5.33152 17.3682 4.82623 16.1551 4.82431 14.7738C4.82281 13.6701 5.08526 12.7854 5.68023 11.8887C5.87729 11.5917 11.6269 5.76905 11.8831 5.60698C12.0497 5.50161 12.2722 5.49272 12.4874 5.58286Z" />
</svg>
