<svg width="24" height="24" viewBox="0 0 24 24" fill="none" xmlns="http://www.w3.org/2000/svg">
<path fill-rule="evenodd" clip-rule="evenodd" d="M10.8516 0.0291391C7.0989 0.419624 3.80998 2.46326 1.81206 5.64612C-1.02143 10.1601 -0.486499 16.1532 3.09845 20.0578C5.09093 22.228 7.55849 23.5187 10.5228 23.9412C11.08 24.0206 12.9228 24.0193 13.5014 23.9391C16.4208 23.5344 18.8863 22.2467 20.8754 20.0875C21.6556 19.2407 22.2728 18.3212 22.8208 17.1892C23.5537 15.6756 23.9308 14.1349 23.9924 12.4021C24.0904 9.6426 23.2425 6.9745 21.5528 4.72618C21.1197 4.14975 20.121 3.11901 19.5499 2.65902C17.8418 1.28302 15.8562 0.416853 13.6656 0.092075C13.0901 0.00673579 11.4247 -0.0304622 10.8516 0.0291391ZM12.4874 4.92898C12.7676 5.04617 12.9293 5.37137 12.8699 5.69784C12.8417 5.85273 12.4908 6.22241 9.91634 8.80908C8.30948 10.4236 6.93125 11.8396 6.85352 11.9559C6.13753 13.0272 5.99019 14.3124 6.45115 15.4654C6.82951 16.4116 7.70827 17.2422 8.67076 17.5632C9.88984 17.9699 11.1512 17.7419 12.1645 16.9317C12.6487 16.5447 17.3697 11.7658 17.511 11.5197C18.2966 10.1521 17.5018 8.45044 15.956 8.19029C15.5351 8.11946 15.0931 8.17977 14.6684 8.36594C14.392 8.48712 14.1929 8.67259 12.0538 10.8018C10.7216 12.1279 9.71079 13.1707 9.67327 13.2577C9.41715 13.8514 9.93773 14.466 10.5579 14.3022C10.733 14.2559 10.9951 14.0124 12.704 12.309C14.7665 10.253 14.7535 10.2636 15.1186 10.3322C15.5608 10.4153 15.8013 10.9468 15.5692 11.328C15.4387 11.5421 11.9872 15.0224 11.6638 15.2657C10.7721 15.9369 9.57734 15.8395 8.81608 15.0336C8.14305 14.321 8.03639 13.2562 8.55424 12.4192C8.71059 12.1665 12.8792 7.96348 13.3485 7.58535C14.02 7.04429 14.7448 6.78949 15.6122 6.78949C18.1038 6.78949 19.826 9.22896 18.9948 11.5809C18.7427 12.2941 18.7184 12.3222 15.8711 15.1881C14.4001 16.6688 13.0593 17.9845 12.8916 18.112C10.9158 19.614 8.07705 19.4237 6.30921 17.6708C5.33152 16.7014 4.82623 15.4896 4.82431 14.1098C4.82281 13.0073 5.08526 12.1236 5.68023 11.2279C5.87729 10.9312 11.6269 5.11497 11.8831 4.95308C12.0497 4.84783 12.2722 4.83895 12.4874 4.92898Z" fill="#1D2E42"/>
</svg>
