<svg width="1600" height="263" viewBox="0 0 1600 263" fill="none" xmlns="http://www.w3.org/2000/svg">
<g clip-path="url(#clip0_573_1570)">
<rect width="1600" height="263" fill="#C5E5E3"/>
<rect width="1600" height="263" fill="url(#paint0_linear_573_1570)" fill-opacity="0.7"/>
<path d="M936.332 95L961 56L936.332 17L911.165 56L936.332 95Z" fill="#F0F1FB"/>
<path d="M811 56H911.949L937 95H835.803L811 56Z" fill="#A3A7E4"/>
<path d="M836.547 17H937L911.949 56H811L836.547 17Z" fill="#6E7AA4"/>
<path d="M1499.53 -4.69537L1468 45.1523L1499.53 95L1531.7 45.1523L1499.53 -4.69537Z" fill="#F0F1FB"/>
<path d="M1659.72 45.1523H1530.69L1498.68 -4.69537H1628.02L1659.72 45.1523Z" fill="#A3A7E4"/>
<path d="M1627.07 95H1498.68L1530.69 45.1523H1659.72L1627.07 95Z" fill="#6E7AA4"/>
<path d="M1579.03 292L1615.4 234.5L1579.03 177L1541.92 234.5L1579.03 292Z" fill="#151A36"/>
<path d="M1394.24 234.5H1543.08L1580.01 292H1430.81L1394.24 234.5Z" fill="#30364F"/>
<path d="M1431.91 177H1580.01L1543.08 234.5H1394.24L1431.91 177Z" fill="#6E7AA4"/>
<path d="M64.3812 283L42 247.616L64.3812 212.231L87.2145 247.616L64.3812 283Z" fill="#151A36"/>
<path d="M178.093 247.616H86.5034L63.7748 283H155.589L178.093 247.616Z" fill="#30364F"/>
<path d="M154.914 212.231H63.7748L86.5034 247.616H178.093L154.914 212.231Z" fill="#6E7AA4"/>
<path d="M96.1725 89L137.603 23.5L96.1725 -42L53.9053 23.5L96.1725 89Z" fill="#FAFBD5"/>
<path d="M-114.321 23.5H55.2217L97.2949 89H-72.664L-114.321 23.5Z" fill="#BAE2BE"/>
<path d="M-71.4143 -42H97.2949L55.2217 23.5H-114.321L-71.4143 -42Z" fill="#F0F1B3"/>
<path d="M607.389 -16.5L551 -53.1162L551 17.9192L607.389 56L607.389 -16.5Z" fill="#F0F1B3"/>
<path d="M663.778 -53.1162L607.389 -16.5L607.389 56L663.778 20.1162L663.778 -53.1162Z" fill="#BAE2BE"/>
<path d="M900.5 234.5L861.864 175H936.818L977 234.5H900.5Z" fill="#6E7AA4"/>
<path d="M861.864 294L900.5 234.5H977L939.136 294H861.864Z" fill="#1D285B"/>
<path d="M900.5 234.5L861.864 175L824 234.5L861.864 294L900.5 234.5Z" fill="#151A36"/>
<path d="M1331 51L1380.5 129L1331 207L1280.5 129L1331 51Z" fill="#FAFBD5"/>
<path d="M1077 129H1280.5L1331 51H1127L1077 129Z" fill="#F0F1B3"/>
<path d="M1128.5 207H1331L1280.5 129H1077L1128.5 207Z" fill="#BAE2BE"/>
</g>
<defs>
<linearGradient id="paint0_linear_573_1570" x1="-303.5" y1="388.5" x2="1245.5" y2="-224" gradientUnits="userSpaceOnUse">
<stop stop-color="#FCFFF2"/>
<stop offset="1" stop-color="white" stop-opacity="0"/>
</linearGradient>
<clipPath id="clip0_573_1570">
<rect width="1600" height="263" fill="white"/>
</clipPath>
</defs>
</svg>
