<svg width="1600" height="263" viewBox="0 0 1600 263" fill="none" xmlns="http://www.w3.org/2000/svg">
<g clip-path="url(#clip0_573_1868)">
<rect width="1600" height="263" fill="#B9BBDF"/>
<rect width="1600" height="263" fill="url(#paint0_linear_573_1868)" fill-opacity="0.8"/>
<path d="M936.332 95L961 56L936.332 17L911.165 56L936.332 95Z" fill="#F0F1FB"/>
<path d="M811 56H911.949L937 95H835.803L811 56Z" fill="#A3A7E4"/>
<path d="M836.547 17H937L911.949 56H811L836.547 17Z" fill="#878ECD"/>
<path d="M1499.53 -4.69537L1468 45.1523L1499.53 95L1531.7 45.1523L1499.53 -4.69537Z" fill="#F0F1FB"/>
<path d="M1659.72 45.1523H1530.69L1498.68 -4.69534H1628.02L1659.72 45.1523Z" fill="#A3A7E4"/>
<path d="M1627.07 95H1498.68L1530.69 45.1523H1659.72L1627.07 95Z" fill="#6E7AA4"/>
<path d="M1579.03 292L1615.4 234.5L1579.03 177L1541.92 234.5L1579.03 292Z" fill="#151A36"/>
<path d="M1394.24 234.5H1543.08L1580.01 292H1430.81L1394.24 234.5Z" fill="#30364F"/>
<path d="M1431.91 177H1580.01L1543.08 234.5H1394.24L1431.91 177Z" fill="#6E7AA4"/>
<path d="M64.3812 283L42 247.616L64.3812 212.231L87.2145 247.616L64.3812 283Z" fill="#151A36"/>
<path d="M178.093 247.616H86.5034L63.7749 283H155.589L178.093 247.616Z" fill="#30364F"/>
<path d="M154.914 212.231H63.7749L86.5034 247.616H178.093L154.914 212.231Z" fill="#6E7AA4"/>
<path d="M135.923 23.5H-33.6192L-75.6923 89H94.2665L135.923 23.5Z" fill="#BAE2BE"/>
<path d="M93.0168 -42H-75.6923L-33.6192 23.5H135.923L93.0168 -42Z" fill="#DFF4F3"/>
<path d="M607.389 -16.5L551 -53.1162L551 17.9192L607.389 56L607.389 -16.5Z" fill="#DFF4F3"/>
<path d="M663.778 -53.1162L607.389 -16.5L607.389 56L663.778 20.1162L663.778 -53.1162Z" fill="#BAE2BE"/>
<path d="M900.5 234.5L861.864 175H936.818L977 234.5H900.5Z" fill="#6E7AA4"/>
<path d="M861.864 294L900.5 234.5H977L939.136 294H861.864Z" fill="#1D285B"/>
<path d="M900.5 234.5L861.864 175L824 234.5L861.864 294L900.5 234.5Z" fill="#151A36"/>
<path d="M1126.5 51L1077 129L1126.5 207L1177 129L1126.5 51Z" fill="#DDE7F2"/>
<path d="M1380.5 129H1177L1126.5 51H1330.5L1380.5 129Z" fill="#DFF4F3"/>
<path d="M1329 207H1126.5L1177 129H1380.5L1329 207Z" fill="#BAE2BE"/>
</g>
<defs>
<linearGradient id="paint0_linear_573_1868" x1="-303.5" y1="388.5" x2="1384" y2="-95.5002" gradientUnits="userSpaceOnUse">
<stop stop-color="#F1FFF5"/>
<stop offset="1" stop-color="white" stop-opacity="0"/>
</linearGradient>
<clipPath id="clip0_573_1868">
<rect width="1600" height="263" fill="white"/>
</clipPath>
</defs>
</svg>
