<svg width="1600" height="263" viewBox="0 0 1600 263" fill="none" xmlns="http://www.w3.org/2000/svg">
<g clip-path="url(#clip0_494_2053)">
<rect width="1600" height="263" fill="#F8FFAD"/>
<rect width="1600" height="263" fill="url(#paint0_linear_494_2053)" fill-opacity="0.2"/>
<path d="M926.332 226L951 187L926.332 148L901.165 187L926.332 226Z" fill="#E9FDDE"/>
<path d="M801 187H901.949L927 226H825.803L801 187Z" fill="#BFDEDD"/>
<path d="M826.547 148H927L901.949 187H801L826.547 148Z" fill="#4EA0AE"/>
<path d="M1599.82 282L1632.4 230.5L1599.82 179L1566.59 230.5L1599.82 282Z" fill="#291D44"/>
<path d="M1434.32 230.5H1567.62L1600.71 282H1467.07L1434.32 230.5Z" fill="#3B2E5A"/>
<path d="M1468.06 179H1600.71L1567.62 230.5H1434.32L1468.06 179Z" fill="#394989"/>
<path d="M683.172 354L724.603 288.5L683.172 223L640.905 288.5L683.172 354Z" fill="#E9FDDE"/>
<path d="M515.586 223H684.295L642.222 288.5H472.679L515.586 223Z" fill="#4EA0AE"/>
<path d="M113.172 89L154.603 23.5L113.172 -42L70.9053 23.5L113.172 89Z" fill="#E9FDDE"/>
<path d="M-97.3206 23.5H72.2217L114.295 89H-55.664L-97.3206 23.5Z" fill="#4EA0AE"/>
<path d="M-54.4143 -42H114.295L72.2217 23.5H-97.3206L-54.4143 -42Z" fill="#6A86BC"/>
<path d="M594.5 27.3889L631.116 -29H560.081L522 27.3889H594.5Z" fill="#2E4185"/>
<path d="M631.116 83.7778L594.5 27.3889H522L557.884 83.7778H631.116Z" fill="#1D285B"/>
<path d="M594.5 27.3889L631.116 -29L667 27.3889L631.116 83.7778L594.5 27.3889Z" fill="#151A36"/>
<path d="M1419.5 24.5L1380.86 -35H1455.82L1496 24.5H1419.5Z" fill="#2E4185"/>
<path d="M1380.86 84L1419.5 24.5H1496L1458.14 84H1380.86Z" fill="#1D285B"/>
<path d="M1419.5 24.5L1380.86 -35L1343 24.5L1380.86 84L1419.5 24.5Z" fill="#151A36"/>
<path d="M1240 51L1289.5 129L1240 207L1189.5 129L1240 51Z" fill="#E9FDDE"/>
<path d="M986 129H1189.5L1240 51H1036L986 129Z" fill="#BFDEDD"/>
<path d="M1037.5 207H1240L1189.5 129H986L1037.5 207Z" fill="#4EA0AE"/>
</g>
<defs>
<linearGradient id="paint0_linear_494_2053" x1="1971" y1="-819" x2="84.9998" y2="471.5" gradientUnits="userSpaceOnUse">
<stop stop-color="#91FF6A"/>
<stop offset="1" stop-color="white" stop-opacity="0"/>
</linearGradient>
<clipPath id="clip0_494_2053">
<rect width="1600" height="263" fill="white"/>
</clipPath>
</defs>
</svg>
