<svg  viewBox="0 0 24 24"  xmlns="http://www.w3.org/2000/svg" id='bluesearch'>
<path fill-rule="evenodd" clip-rule="evenodd" d="M12 24C18.6274 24 24 18.6274 24 12C24 5.37258 18.6274 0 12 0C5.37258 0 0 5.37258 0 12C0 18.6274 5.37258 24 12 24ZM8.98922 6.56598C9.6127 6.25315 10.1461 6.10567 11.0117 6.00676C11.1983 5.98544 11.9253 6.01773 12.1974 6.05943C12.7542 6.1447 13.1922 6.28213 13.722 6.53781C14.6916 7.00576 15.4587 7.70659 16.0251 8.64223C16.3934 9.2505 16.6488 10.008 16.7429 10.7708C16.7964 11.205 16.7625 12.0098 16.6725 12.4378C16.501 13.2535 16.1803 13.953 15.6322 14.7063C15.6111 14.7353 15.8829 15.0237 16.7725 15.9162C17.8473 16.9945 17.9435 17.0987 17.9765 17.2214C18.0767 17.5936 17.8469 17.9468 17.4761 17.9907C17.4237 17.9969 17.3807 18.002 17.3382 17.9992C17.1418 17.9861 16.9568 17.8016 15.9052 16.7551C15.0189 15.873 14.7373 15.6082 14.7078 15.6294C14.0072 16.133 13.4208 16.4214 12.7418 16.5963C10.2713 17.2327 7.71653 16.0665 6.56599 13.7771C5.51325 11.6823 5.95771 9.13608 7.66092 7.50431C8.08367 7.09931 8.46952 6.82674 8.98922 6.56598ZM14.8613 9.04314C14.2439 8.12504 13.3287 7.51195 12.2268 7.27821C11.9156 7.21219 11.1507 7.18315 10.8455 7.22577C10.2609 7.30737 9.60621 7.54287 9.1467 7.83685C7.31974 9.0056 6.67786 11.3406 7.65112 13.2772C8.30814 14.5846 9.58273 15.4376 11.0593 15.5582C11.9946 15.6345 12.9224 15.3931 13.7199 14.866C14.1015 14.6137 14.6154 14.1003 14.8677 13.7194C15.8183 12.284 15.8158 10.4625 14.8613 9.04314Z"/>
</svg>
