<svg width="13" height="10" viewBox="0 0 13 10" fill="none" xmlns="http://www.w3.org/2000/svg">
<path fill-rule="evenodd" clip-rule="evenodd" d="M8.05525 3.07012C6.28343 4.75871 4.7929 6.18043 4.74293 6.22952L4.65209 6.31874L3.25839 4.78986C2.49185 3.949 1.85343 3.26484 1.83969 3.26956C1.82595 3.27426 1.40638 3.67065 0.907348 4.15039L0 5.02266L0.0798651 5.11734C0.123786 5.16944 1.14219 6.28932 2.34296 7.60602L4.5262 10L4.66728 9.85934C4.74489 9.782 6.60876 8.00581 8.80924 5.9123C11.0097 3.81876 12.8528 2.06341 12.905 2.01153L13 1.91719L12.2856 1.12085C11.8927 0.682859 11.5049 0.251503 11.4239 0.162255L11.2767 0L8.05525 3.07012Z" fill="#4F4F4F"/>
</svg>
