<svg width="16" height="12" viewBox="0 0 16 12" fill="none" xmlns="http://www.w3.org/2000/svg">
<path fill-rule="evenodd" clip-rule="evenodd" d="M9.91415 3.65194C7.73345 5.66052 5.89895 7.35168 5.83745 7.41007L5.72565 7.5162L4.01032 5.69758C3.06689 4.69737 2.28115 3.88355 2.26424 3.88917C2.24732 3.89476 1.73093 4.36627 1.11674 4.93693L0 5.9745L0.0982955 6.08712C0.152352 6.14909 1.40578 7.48119 2.88365 9.04743L5.5707 11.8951L5.74435 11.7278C5.83986 11.6358 8.13386 9.52298 10.8421 7.03273C13.5504 4.54244 15.8189 2.45444 15.8831 2.39273L16 2.28051L15.1207 1.33326C14.6371 0.812266 14.1599 0.299165 14.0602 0.193004L13.879 0L9.91415 3.65194Z" fill="#51ADC1"/>
</svg>
