<svg  viewBox="0 0 24 24"  xmlns="http://www.w3.org/2000/svg" id='circle'>
<path fill-rule="evenodd" clip-rule="evenodd" d="M8.61888 0.0414943C8.16212 0.150492 7.03162 0.634971 6.34447 1.01618C3.51443 2.58627 1.3966 5.21741 0.499353 8.27802C-0.0148525 10.0322 -0.137952 12.0041 0.15805 13.7467C0.596145 16.3259 1.75155 18.5645 3.59931 20.4141C5.52905 22.3458 7.86631 23.513 10.6119 23.9165C11.293 24.0166 13.0048 24.0296 13.6836 23.9398C15.7614 23.6651 17.5521 22.9868 19.1894 21.8542C21.2098 20.4566 22.8404 18.3916 23.6823 16.1641C23.9873 15.3574 24.0298 15.011 23.8837 14.5229C23.6904 13.877 23.0426 13.4122 22.3357 13.4122C21.5601 13.4122 21.0392 13.8245 20.7391 14.6757C20.5564 15.1938 20.0651 16.1956 19.781 16.629C19.2836 17.3882 18.6964 18.0527 18.0243 18.6172C14.4448 21.6237 9.22538 21.396 5.92185 18.0893C3.4145 15.5795 2.61709 11.8871 3.86451 8.56319C3.93302 8.38054 4.10667 7.99872 4.25041 7.71472C5.29716 5.64594 7.00963 4.13321 9.27542 3.27569C9.76069 3.09206 9.84332 3.04319 10.1002 2.78793C10.4573 2.43305 10.5937 2.10784 10.5937 1.61111C10.5937 1.07744 10.3922 0.665107 9.97622 0.347597C9.57752 0.0432311 9.08094 -0.0687704 8.61888 0.0414943ZM15.1373 0.060083C14.6042 0.208558 14.1984 0.573196 14.0125 1.07073C13.9242 1.30707 13.9099 1.42015 13.9275 1.74184C13.9711 2.53679 14.3358 2.94776 15.3249 3.31667C17.8692 4.26573 19.714 6.12896 20.7193 8.76499C20.9606 9.39752 21.2164 9.71902 21.6468 9.93063C21.8821 10.0462 21.9664 10.0618 22.3592 10.0618C22.7514 10.0618 22.8364 10.0462 23.0701 9.93128C23.6227 9.65968 23.9984 9.08564 24 8.51085C24.0023 7.62971 22.7648 5.19234 21.6515 3.88536C20.3091 2.30945 18.647 1.10171 16.8155 0.371209C15.8978 0.00525577 15.5595 -0.0575045 15.1373 0.060083Z"/>
</svg>
