<svg width="13" height="13" viewBox="0 0 13 13" fill="none" xmlns="http://www.w3.org/2000/svg">
<path d="M1.64645 2.1825L1.2929 2.53605L1.64644 2.88961L3.62834 4.87158L3.62834 4.87158L5.25672 6.5L3.62834 8.12842L3.97497 8.47504L3.62834 8.12842L1.64644 10.1104L1.2929 10.4639L1.64645 10.8175L1.91448 11.0855L2.1825 11.3536L2.53605 11.7071L2.88961 11.3536L4.87158 9.37166L4.51803 9.0181L4.87158 9.37166L6.5 7.74328L8.12842 9.37166L8.48197 9.0181L8.12842 9.37166L10.1104 11.3536L10.4639 11.7071L10.8175 11.3536L11.0855 11.0855L11.3536 10.8175L11.7071 10.4639L11.3536 10.1104L9.37166 8.12842L9.0181 8.48197L9.37166 8.12842L7.74328 6.5L9.37166 4.87158L9.0181 4.51803L9.37166 4.87158L11.3536 2.88961L11.7071 2.53605L11.3536 2.1825L11.0855 1.91448L10.8175 1.64645L10.4639 1.2929L10.1104 1.64644L8.12842 3.62834L8.47504 3.97497L8.12842 3.62834L6.5 5.25672L4.87158 3.62834L4.87158 3.62834L2.88961 1.64644L2.53605 1.2929L2.1825 1.64645L1.91448 1.91448L1.64645 2.1825Z" fill="#DA5454" stroke="#DA5454"/>
</svg>
