<svg  viewBox="0 0 23 23"  xmlns="http://www.w3.org/2000/svg" id='copy'>
<path fill-rule="evenodd" clip-rule="evenodd" d="M1.73915 0.0817606C0.929559 0.299397 0.294546 0.943305 0.0809749 1.76309C-0.0281814 2.18199 -0.0264093 14.6924 0.0828428 15.1117C0.298042 15.9376 0.936408 16.5738 1.76698 16.7901C2.18598 16.8992 14.6994 16.8974 15.1189 16.7882C15.945 16.5731 16.5813 15.9349 16.7976 15.1045C16.9052 14.6917 16.9052 2.17586 16.7976 1.76309C16.5813 0.932722 15.945 0.294513 15.1189 0.0793664C14.7067 -0.0279435 2.1389 -0.0257409 1.73915 0.0817606ZM18.3904 10.6724C18.375 15.5928 18.3915 15.2722 18.1153 16.0102C17.9759 16.3828 17.6051 16.9377 17.2752 17.2675C16.9453 17.5973 16.3903 17.968 16.0176 18.1074C15.2794 18.3835 15.6001 18.367 10.6785 18.3824L6.14028 18.3966V19.6781C6.14028 20.6743 6.15661 21.0221 6.21361 21.241C6.4288 22.0669 7.06717 22.703 7.89774 22.9193C8.31061 23.0269 20.8295 23.0269 21.2424 22.9193C22.073 22.703 22.7113 22.0669 22.9265 21.241C22.9906 20.995 22.9999 20.1522 22.9999 14.563C22.9999 7.52527 23.0154 7.90796 22.7053 7.32626C22.5265 6.99078 22.1024 6.5749 21.7648 6.40385C21.2897 6.16318 21.0739 6.13532 19.6863 6.13532H18.4046L18.3904 10.6724Z" />
</svg>
