<svg width="25" height="30" viewBox="0 0 25 30" fill="none" xmlns="http://www.w3.org/2000/svg">
<path opacity="0.6" d="M19.3209 1.146H1.14648V28.8543H23.8535V4.63945L19.3209 1.146Z" fill="#537293" stroke="#537293"/>
<path d="M5.98935 23.0474C5.85346 23.0474 5.73662 22.9993 5.63885 22.9032C5.54107 22.8054 5.49219 22.6877 5.49219 22.5502C5.49219 22.4143 5.54107 22.2983 5.63885 22.2022C5.73662 22.1044 5.85346 22.0555 5.98935 22.0555C6.12524 22.0555 6.24207 22.1044 6.33984 22.2022C6.43762 22.2983 6.48651 22.4143 6.48651 22.5502C6.48651 22.6413 6.46331 22.725 6.4169 22.8013C6.37216 22.8758 6.3125 22.9355 6.23793 22.9802C6.16335 23.025 6.08049 23.0474 5.98935 23.0474ZM8.9114 23.0747C8.60316 23.0747 8.32807 22.996 8.08612 22.8385C7.84582 22.6795 7.6569 22.4532 7.51935 22.1599C7.38346 21.8649 7.31552 21.5111 7.31552 21.0985C7.31552 20.6858 7.38429 20.3329 7.52184 20.0395C7.66104 19.7462 7.85162 19.5217 8.09357 19.3659C8.33552 19.2101 8.60979 19.1322 8.91637 19.1322C9.15335 19.1322 9.34393 19.172 9.4881 19.2515C9.63394 19.3294 9.74663 19.4206 9.82617 19.525C9.90737 19.6294 9.97035 19.7214 10.0151 19.8009H10.0598V17.9092H10.8031V23.0001H10.0772V22.406H10.0151C9.97035 22.4872 9.90572 22.58 9.8212 22.6844C9.73834 22.7888 9.62399 22.88 9.47816 22.9579C9.33233 23.0358 9.14341 23.0747 8.9114 23.0747ZM9.07546 22.4408C9.28924 22.4408 9.46987 22.3845 9.61737 22.2718C9.76651 22.1574 9.8792 21.9992 9.95543 21.797C10.0333 21.5948 10.0723 21.3595 10.0723 21.091C10.0723 20.8259 10.0342 20.5939 9.95792 20.395C9.88169 20.1961 9.76983 20.0412 9.62234 19.9302C9.47485 19.8191 9.29255 19.7636 9.07546 19.7636C8.85174 19.7636 8.66531 19.8216 8.51616 19.9376C8.36701 20.0536 8.25432 20.2119 8.17809 20.4124C8.10352 20.6129 8.06623 20.8391 8.06623 21.091C8.06623 21.3462 8.10434 21.5758 8.18058 21.7796C8.25681 21.9834 8.3695 22.145 8.51864 22.2643C8.66945 22.382 8.85505 22.4408 9.07546 22.4408ZM13.4722 23.0772C13.1143 23.0772 12.8019 22.9952 12.5351 22.8311C12.2683 22.667 12.0611 22.4375 11.9136 22.1425C11.7661 21.8475 11.6924 21.5028 11.6924 21.1084C11.6924 20.7124 11.7661 20.366 11.9136 20.0694C12.0611 19.7727 12.2683 19.5424 12.5351 19.3783C12.8019 19.2143 13.1143 19.1322 13.4722 19.1322C13.8302 19.1322 14.1425 19.2143 14.4094 19.3783C14.6762 19.5424 14.8833 19.7727 15.0308 20.0694C15.1783 20.366 15.252 20.7124 15.252 21.1084C15.252 21.5028 15.1783 21.8475 15.0308 22.1425C14.8833 22.4375 14.6762 22.667 14.4094 22.8311C14.1425 22.9952 13.8302 23.0772 13.4722 23.0772ZM13.4747 22.4532C13.7067 22.4532 13.8989 22.3919 14.0514 22.2693C14.2039 22.1467 14.3166 21.9834 14.3895 21.7796C14.464 21.5758 14.5013 21.3512 14.5013 21.1059C14.5013 20.8623 14.464 20.6386 14.3895 20.4348C14.3166 20.2293 14.2039 20.0644 14.0514 19.9401C13.8989 19.8158 13.7067 19.7537 13.4747 19.7537C13.241 19.7537 13.0471 19.8158 12.893 19.9401C12.7406 20.0644 12.627 20.2293 12.5525 20.4348C12.4796 20.6386 12.4431 20.8623 12.4431 21.1059C12.4431 21.3512 12.4796 21.5758 12.5525 21.7796C12.627 21.9834 12.7406 22.1467 12.893 22.2693C13.0471 22.3919 13.241 22.4532 13.4747 22.4532ZM17.69 23.0772C17.3204 23.0772 17.0022 22.9935 16.7354 22.8261C16.4703 22.6571 16.2665 22.4242 16.1239 22.1276C15.9814 21.831 15.9102 21.4912 15.9102 21.1084C15.9102 20.7206 15.9831 20.3784 16.1289 20.0818C16.2747 19.7835 16.4802 19.5507 16.7454 19.3833C17.0105 19.2159 17.3229 19.1322 17.6825 19.1322C17.9725 19.1322 18.2311 19.1861 18.4581 19.2938C18.6851 19.3999 18.8683 19.549 19.0075 19.7412C19.1483 19.9335 19.232 20.158 19.2585 20.4149H18.5352C18.4954 20.2359 18.4042 20.0818 18.2617 19.9525C18.1209 19.8233 17.9319 19.7586 17.695 19.7586C17.4878 19.7586 17.3063 19.8133 17.1506 19.9227C16.9964 20.0304 16.8763 20.1845 16.7901 20.3851C16.704 20.5839 16.6609 20.8193 16.6609 21.091C16.6609 21.3694 16.7031 21.6097 16.7876 21.8119C16.8722 22.0141 16.9915 22.1707 17.1456 22.2817C17.3014 22.3928 17.4845 22.4483 17.695 22.4483C17.8358 22.4483 17.9634 22.4226 18.0778 22.3712C18.1938 22.3182 18.2907 22.2428 18.3686 22.145C18.4482 22.0472 18.5037 21.9296 18.5352 21.792H19.2585C19.232 22.0389 19.1516 22.2594 19.0174 22.4532C18.8832 22.6471 18.7034 22.7996 18.478 22.9106C18.2543 23.0217 17.9916 23.0772 17.69 23.0772Z" fill="white"/>
</svg>
