<svg  viewBox="0 0 17 24"  xmlns="http://www.w3.org/2000/svg" id='download-icon'>
<path fill-rule="evenodd" clip-rule="evenodd" d="M1.09924 0.0651393C0.647633 0.21446 0.319625 0.519576 0.115352 0.980349L0 1.2406V12.0103V22.7799L0.11686 23.0436C0.281263 23.4146 0.515782 23.669 0.857582 23.847L1.15122 24H8.49288H15.8346L16.1282 23.847C16.47 23.669 16.7045 23.4146 16.8689 23.0436L16.9858 22.7799L16.9974 15.7996C17.0038 11.9604 16.9979 8.81925 16.9841 8.81925C16.9704 8.81925 16.8953 8.85618 16.8172 8.90137C16.6867 8.97692 16.4315 8.98466 13.6374 8.9979C11.5057 9.00799 10.5201 8.9964 10.3334 8.95909C9.6963 8.83168 9.06628 8.3474 8.77095 7.75805C8.48885 7.19517 8.48867 7.19202 8.50251 3.59651C8.51408 0.607189 8.52122 0.337079 8.59267 0.198833C8.63538 0.116195 8.67028 0.0370302 8.67028 0.0228584C8.67028 0.00863964 7.00883 -0.00154343 4.97821 0.000192854C2.05523 0.00267996 1.24719 0.0161948 1.09924 0.0651393ZM9.91206 3.76455C9.91206 6.20731 9.92381 6.83406 9.9718 6.95542C10.0664 7.19451 10.361 7.44674 10.5849 7.48038C10.6905 7.4962 12.0193 7.50305 13.5377 7.4955L16.2986 7.48184L13.1053 4.10327L9.91206 0.724646V3.76455ZM8.88152 9.50775C8.94525 9.55811 9.03856 9.65764 9.08885 9.72887C9.17804 9.85525 9.18061 9.91785 9.19258 12.2798L9.20482 14.7013L9.74695 14.1343C10.3293 13.5253 10.4347 13.4644 10.7858 13.5341C11.0041 13.5774 11.2694 13.8581 11.3103 14.0891C11.3838 14.5037 11.3788 14.5111 10.0532 15.9137C8.9919 17.0367 8.80297 17.2171 8.65919 17.2446C8.26458 17.3202 8.25823 17.3153 6.93232 15.9132C5.60624 14.5109 5.6018 14.5045 5.67546 14.0891C5.7164 13.8581 5.9817 13.5774 6.19998 13.5341C6.55119 13.4643 6.65638 13.5252 7.24002 14.1356L7.7833 14.7037V12.3511C7.7833 10.7986 7.7994 9.9536 7.83062 9.86642C7.89306 9.69204 8.04035 9.52648 8.20461 9.446C8.38135 9.35942 8.73454 9.39166 8.88152 9.50775ZM12.4229 18.8879C12.6556 19.0718 12.7282 19.2217 12.7282 19.5185C12.7282 19.8153 12.6556 19.9653 12.4229 20.1491C12.3019 20.2447 12.258 20.246 8.58943 20.2599C6.06623 20.2694 4.82649 20.258 4.71623 20.2241C4.2656 20.0858 4.09153 19.4339 4.40122 19.0444C4.62913 18.7578 4.44428 18.7696 8.54508 18.7808C12.2612 18.7911 12.3017 18.7922 12.4229 18.8879Z"/>
</svg>
