<svg  viewBox="0 0 24 24"  xmlns="http://www.w3.org/2000/svg" id='edit-icon'>
<path fill-rule="evenodd" clip-rule="evenodd" d="M21.2035 0.0377765C20.9441 0.11667 20.7785 0.248316 20.171 0.859239L19.5374 1.49635L21.0278 2.98581L22.5182 4.47526L23.1558 3.84204C23.5065 3.49376 23.8386 3.12435 23.8939 3.0211C24.0295 2.76785 24.0363 2.25553 23.9076 1.98858C23.8551 1.8797 23.4705 1.45383 22.9918 0.974646C22.2886 0.270609 22.1323 0.136992 21.9351 0.0711925C21.6929 -0.00962551 21.4031 -0.0228605 21.2035 0.0377765ZM14.0529 6.97593L9.60266 11.4235L9.06371 13.042C8.76733 13.9321 8.52458 14.7118 8.5243 14.7746C8.52326 15.0004 8.70468 15.2823 8.91714 15.385C9.02704 15.4382 9.16671 15.4817 9.22752 15.4817C9.28829 15.4817 10.0688 15.239 10.9621 14.9424L12.5861 14.4031L17.0474 9.94418L21.5087 5.48525L20.0298 4.00678C19.2164 3.19362 18.5402 2.52831 18.5271 2.52831C18.514 2.52831 16.5006 4.52975 14.0529 6.97593ZM2.06637 3.89118C1.1566 4.07755 0.414683 4.73151 0.108578 5.61694L0 5.93092V13.9329V21.935L0.107263 22.2451C0.37622 23.0226 0.976877 23.6238 1.75219 23.8915L2.06637 24H10.0736H18.0807L18.3949 23.8915C19.1632 23.6262 19.7373 23.0572 20.0412 22.2597L20.1471 21.9819L20.1598 15.4117L20.1725 8.84159L16.8254 12.1766C13.7584 15.2326 13.4528 15.5236 13.1731 15.6557C12.6221 15.9161 9.7304 16.8455 9.38025 16.8748C8.79711 16.9235 8.17677 16.6898 7.74556 16.2589C7.30523 15.8188 7.06981 15.1746 7.13203 14.5799C7.16604 14.2548 8.12023 11.3202 8.34964 10.8354C8.48189 10.5559 8.77306 10.2506 11.8301 7.18637L15.1663 3.84242L8.71027 3.84758C5.15945 3.8504 2.16969 3.87002 2.06637 3.89118Z"/>
</svg>
