<svg  viewBox="0 0 21 26"  xmlns="http://www.w3.org/2000/svg" id='exl-icon'>
<path d="M16.481 1.21831C16.3038 1.07697 16.0839 1 15.8573 1H2C1.44771 1 1 1.44772 1 2V24C1 24.5523 1.44772 25 2 25H19C19.5523 25 20 24.5523 20 24V4.50734C20 4.2031 19.8615 3.9154 19.6237 3.72565L16.481 1.21831Z" />
<path d="M4.98935 21.0472C4.85346 21.0472 4.73662 20.9992 4.63885 20.9031C4.54107 20.8053 4.49219 20.6876 4.49219 20.5501C4.49219 20.4142 4.54107 20.2982 4.63885 20.2021C4.73662 20.1043 4.85346 20.0554 4.98935 20.0554C5.12524 20.0554 5.24207 20.1043 5.33984 20.2021C5.43762 20.2982 5.48651 20.4142 5.48651 20.5501C5.48651 20.6412 5.46331 20.7249 5.4169 20.8011C5.37216 20.8757 5.3125 20.9354 5.23793 20.9801C5.16335 21.0249 5.08049 21.0472 4.98935 21.0472ZM8.12766 21.0771C7.75148 21.0771 7.4275 20.9967 7.15572 20.8359C6.88559 20.6735 6.67679 20.4457 6.5293 20.1523C6.38346 19.8574 6.31055 19.5118 6.31055 19.1158C6.31055 18.7247 6.38346 18.38 6.5293 18.0817C6.67679 17.7834 6.88228 17.5505 7.14577 17.3832C7.41093 17.2158 7.72082 17.1321 8.07546 17.1321C8.2909 17.1321 8.4997 17.1677 8.70188 17.239C8.90406 17.3103 9.08552 17.4221 9.24627 17.5746C9.40702 17.727 9.5338 17.9251 9.6266 18.1687C9.7194 18.4106 9.7658 18.7048 9.7658 19.0511V19.3146H6.73065V18.7578H9.03746C9.03746 18.5623 8.99769 18.3891 8.91815 18.2383C8.8386 18.0858 8.72674 17.9657 8.58256 17.8778C8.44005 17.79 8.27267 17.7461 8.08043 17.7461C7.87163 17.7461 7.68933 17.7975 7.53356 17.9002C7.37944 18.0013 7.26012 18.1339 7.1756 18.2979C7.09274 18.4603 7.05131 18.6368 7.05131 18.8274V19.2624C7.05131 19.5176 7.09606 19.7347 7.18555 19.9137C7.27669 20.0927 7.40347 20.2294 7.56587 20.3239C7.72828 20.4167 7.91803 20.4631 8.13512 20.4631C8.27598 20.4631 8.40442 20.4432 8.52042 20.4034C8.63642 20.362 8.73668 20.3007 8.8212 20.2195C8.90572 20.1383 8.97035 20.038 9.01509 19.9187L9.71857 20.0455C9.66223 20.2526 9.56114 20.4341 9.41531 20.5898C9.27113 20.744 9.08967 20.8641 8.87092 20.9503C8.65382 21.0348 8.40607 21.0771 8.12766 21.0771ZM11.0882 17.1818L11.9309 18.6683L12.7811 17.1818H13.5939L12.4032 19.0909L13.6039 21H12.791L11.9309 19.5732L11.0733 21H10.258L11.4462 19.0909L10.2729 17.1818H11.0882ZM15.1003 15.9091V21H14.3571V15.9091H15.1003Z" fill="white"/>
</svg>
