<svg width="96" height="19" viewBox="0 0 96 19" fill="none" xmlns="http://www.w3.org/2000/svg">
<path d="M44.1349 5.34801H46.1005C46.9315 5.34801 47.6683 5.53089 48.3111 5.89666C48.9574 6.25888 49.4634 6.76847 49.8292 7.42543C50.1985 8.07884 50.3832 8.83878 50.3832 9.70526C50.3832 10.5646 50.1985 11.3192 49.8292 11.9691C49.4634 12.619 48.9574 13.1268 48.3111 13.4925C47.6683 13.8548 46.9315 14.0359 46.1005 14.0359H44.1349C43.304 14.0359 42.5653 13.8565 41.919 13.4979C41.2727 13.1357 40.7649 12.6314 40.3956 11.9851C40.0298 11.3388 39.8469 10.5842 39.8469 9.72124C39.8469 8.85121 40.0316 8.08771 40.4009 7.43075C40.7702 6.77379 41.2763 6.26243 41.919 5.89666C42.5653 5.53089 43.304 5.34801 44.1349 5.34801ZM44.1349 6.77024C43.5668 6.77024 43.082 6.8892 42.6808 7.12713C42.2795 7.36151 41.9723 7.69886 41.7592 8.1392C41.5462 8.57955 41.4396 9.10689 41.4396 9.72124C41.4396 10.3214 41.5462 10.8381 41.7592 11.2713C41.9759 11.701 42.2848 12.033 42.6861 12.2674C43.0874 12.4982 43.5703 12.6136 44.1349 12.6136H46.1058C46.6705 12.6136 47.1516 12.4982 47.5494 12.2674C47.9506 12.033 48.256 11.6992 48.4656 11.266C48.6786 10.8292 48.7852 10.3089 48.7852 9.70526C48.7852 9.09801 48.6786 8.57599 48.4656 8.1392C48.256 7.69886 47.9506 7.36151 47.5494 7.12713C47.1516 6.8892 46.6705 6.77024 46.1058 6.77024H44.1349ZM45.93 3.89915V15.4474H44.3161V3.89915H45.93ZM53.8628 12.7681L57.469 6.81818H59.1842V15H57.6235V9.04474L54.0333 15H52.3021V6.81818H53.8628V12.7681ZM60.681 15L60.6757 13.6204H60.9687C61.1959 13.6204 61.3859 13.5724 61.5386 13.4766C61.6949 13.3771 61.8227 13.2102 61.9221 12.9759C62.0216 12.7415 62.0979 12.4183 62.1512 12.0064C62.2045 11.5909 62.2435 11.0689 62.2684 10.4403L62.4122 6.81818H68.1224V15H66.5617V8.19247H63.8877L63.7599 10.973C63.7279 11.6477 63.6586 12.2372 63.5521 12.7415C63.4491 13.2457 63.2982 13.6665 63.0993 14.0039C62.9005 14.3377 62.6448 14.5881 62.3323 14.755C62.0198 14.9183 61.6398 15 61.1924 15H60.681ZM71.445 9.63068H73.8207C74.8221 9.63068 75.5927 9.87926 76.1325 10.3764C76.6722 10.8736 76.9421 11.5146 76.9421 12.2994C76.9421 12.8107 76.8214 13.2706 76.5799 13.679C76.3384 14.0874 75.9851 14.4105 75.5199 14.6484C75.0547 14.8828 74.4883 15 73.8207 15H70.2464V6.81818H71.8072V13.6257H73.8207C74.2788 13.6257 74.6552 13.5067 74.9499 13.2688C75.2447 13.0273 75.392 12.7202 75.392 12.3473C75.392 11.9531 75.2447 11.6317 74.9499 11.3832C74.6552 11.131 74.2788 11.005 73.8207 11.005H71.445V9.63068ZM77.4202 8.19247V6.81818H84.3236V8.19247H81.6549V15H80.0995V8.19247H77.4202ZM86.0082 18.0682V6.81818H87.5636V8.14453H87.6967C87.7891 7.97408 87.9222 7.77699 88.0962 7.55327C88.2702 7.32955 88.5117 7.13423 88.8207 6.96733C89.1296 6.79688 89.538 6.71165 90.0458 6.71165C90.7063 6.71165 91.2958 6.87855 91.8143 7.21236C92.3327 7.54616 92.7393 8.02734 93.0341 8.65589C93.3324 9.28445 93.4815 10.0408 93.4815 10.9251C93.4815 11.8093 93.3342 12.5675 93.0394 13.1996C92.7447 13.8281 92.3398 14.3129 91.8249 14.6538C91.31 14.9911 90.7223 15.1598 90.0618 15.1598C89.5646 15.1598 89.158 15.0763 88.842 14.9094C88.5295 14.7425 88.2844 14.5472 88.1069 14.3235C87.9293 14.0998 87.7926 13.9009 87.6967 13.7269H87.6009V18.0682H86.0082ZM87.5689 10.9091C87.5689 11.4844 87.6523 11.9886 87.8192 12.4219C87.9862 12.8551 88.2276 13.1942 88.5437 13.4393C88.8597 13.6808 89.2468 13.8015 89.7049 13.8015C90.1808 13.8015 90.5785 13.6754 90.8981 13.4233C91.2177 13.1676 91.4592 12.8214 91.6225 12.3846C91.7894 11.9478 91.8729 11.456 91.8729 10.9091C91.8729 10.3693 91.7912 9.88459 91.6278 9.4549C91.468 9.02521 91.2266 8.68608 90.9034 8.4375C90.5838 8.18892 90.1843 8.06463 89.7049 8.06463C89.2433 8.06463 88.8526 8.18359 88.533 8.42152C88.217 8.65945 87.9773 8.99148 87.8139 9.41761C87.6506 9.84375 87.5689 10.3409 87.5689 10.9091Z" fill="#1D2E42"/>
<rect y="4" width="25" height="2" fill="#1D2E42"/>
<rect x="4" y="10" width="17" height="2" fill="#1D2E42"/>
<rect x="10" y="16" width="6" height="2" fill="#1D2E42"/>
</svg>
