<svg width="17" height="17" viewBox="0 0 17 17" fill="none" xmlns="http://www.w3.org/2000/svg">
<path fill-rule="evenodd" clip-rule="evenodd" d="M7.68761 0.0203517C5.70374 0.224153 3.89844 1.08004 2.49508 2.48217C-0.831694 5.80596 -0.831694 11.1981 2.49508 14.5219C3.84566 15.8713 5.48759 16.6779 7.45509 16.9583C7.84968 17.0146 9.15468 17.0137 9.56442 16.9569C11.4906 16.6898 13.1827 15.8563 14.5096 14.521C16.0531 12.9677 16.9116 10.9911 16.9939 8.80147C17.0828 6.43759 16.1903 4.16873 14.5069 2.47931C13.2017 1.16934 11.548 0.342188 9.68069 0.065297C9.27446 0.00504829 8.09539 -0.021533 7.68761 0.0203517ZM9.73051 1.27905C11.2732 1.56047 12.5853 2.24353 13.6668 3.32828C15.0588 4.72431 15.8094 6.53683 15.8094 8.50205C15.8094 11.3 14.2519 13.8084 11.7318 15.0692C10.7278 15.5716 9.65567 15.8211 8.50145 15.8211C6.54043 15.8211 4.72603 15.0673 3.33606 13.6753C2.23778 12.5753 1.55568 11.2455 1.27133 9.64981C1.18676 9.17514 1.18676 7.82897 1.27133 7.3543C1.55568 5.75862 2.23778 4.42879 3.33606 3.32884C4.52181 2.1413 5.95573 1.4457 7.68761 1.21784C8.09709 1.16398 9.29669 1.19991 9.73051 1.27905ZM8.22481 4.48901C7.85237 4.59387 7.59327 4.9 7.59377 5.23468C7.5944 5.67153 7.93691 6.00148 8.42242 6.03302C8.968 6.06848 9.3997 5.72459 9.3976 5.2562C9.39521 4.71936 8.79692 4.32799 8.22481 4.48901ZM8.23856 7.10885C8.00743 7.1477 7.81002 7.25775 7.71312 7.40181L7.63646 7.51585L7.64542 9.77034L7.65439 12.0248L7.76674 12.1409C7.94611 12.3262 8.1693 12.4077 8.50215 12.4095C8.7566 12.4109 8.80759 12.4 9.00666 12.3019C9.39591 12.11 9.36512 12.3316 9.36512 9.7219V7.47307L9.26347 7.35709C9.08413 7.15253 8.63133 7.04284 8.23856 7.10885Z" fill="#537293"/>
</svg>
