<svg width="24" height="24" viewBox="0 0 24 24" fill="none" xmlns="http://www.w3.org/2000/svg">
<path fill-rule="evenodd" clip-rule="evenodd" d="M11.096 0.0225842C9.31744 0.192919 7.9946 0.56909 6.49694 1.33039C4.72282 2.23215 3.13083 3.65814 1.97004 5.38517C1.47855 6.11641 0.877943 7.35087 0.589562 8.22252C0.356792 8.92609 0.171891 9.72678 0.0588846 10.5205C-0.0196282 11.0721 -0.0196282 12.9236 0.0588846 13.4751C0.255519 14.8565 0.620864 16.0666 1.19167 17.227C1.83746 18.5399 2.47002 19.4219 3.51434 20.4656C4.54726 21.4977 5.44361 22.1423 6.70812 22.7622C7.59044 23.1948 8.16012 23.4053 9.05459 23.6295C11.4017 24.2178 13.7557 24.105 16.0489 23.2943C16.744 23.0486 17.9574 22.4409 18.5813 22.0261C19.9837 21.0934 21.2712 19.7745 22.19 18.3291C22.528 17.7973 23.0712 16.6754 23.2928 16.0514C24.3953 12.9468 24.2034 9.61474 22.7545 6.70334C22.1698 5.5284 21.5188 4.60755 20.6048 3.66241C19.5913 2.61423 18.5971 1.89106 17.2672 1.23439C15.8771 0.548033 14.5819 0.181663 13.0436 0.0396083C12.5655 -0.00452302 11.4785 -0.0140434 11.096 0.0225842ZM12.5215 5.90223C12.6159 5.96605 12.7509 6.10089 12.8214 6.20181L12.9497 6.38533L12.9732 8.68742L12.9967 10.9895L15.3003 11.013L17.6039 11.0364L17.7875 11.1646C17.8885 11.2351 18.024 11.3708 18.0885 11.4661C18.1883 11.6134 18.2058 11.6928 18.2058 11.9978C18.2058 12.3029 18.1883 12.3823 18.0885 12.5296C18.024 12.6249 17.8885 12.7605 17.7875 12.831L17.6039 12.9593L15.3003 12.9827L12.9967 13.0061L12.9732 15.3082L12.9497 17.6103L12.8214 17.7939C12.7509 17.8948 12.6152 18.0301 12.5198 18.0946C12.3724 18.1944 12.293 18.2119 11.9877 18.2119C11.6824 18.2119 11.6029 18.1944 11.4555 18.0946C11.3602 18.0301 11.2245 17.8948 11.1539 17.7939L11.0256 17.6103L11.0022 15.3082L10.9787 13.0061L8.67507 12.9827L6.37145 12.9593L6.18781 12.831C5.89399 12.6259 5.77455 12.4101 5.75536 12.0498C5.73485 11.6651 5.86471 11.388 6.1643 11.1771L6.36413 11.0364L8.67141 11.013L10.9787 10.9895L11.0022 8.68377L11.0256 6.37801L11.1664 6.17832C11.3775 5.87892 11.6548 5.74915 12.0397 5.76964C12.2737 5.78207 12.3921 5.81467 12.5215 5.90223Z" fill="#1D2E42"/>
</svg>
