<svg width="14" height="13" viewBox="0 0 14 13" fill="none" xmlns="http://www.w3.org/2000/svg">
<path fill-rule="evenodd" clip-rule="evenodd" d="M6.19417 0.0448137C4.46363 0.292476 2.89065 1.38989 1.95177 3.00463C1.40343 3.9477 1.09148 5.11025 1.09148 6.2107V6.58844H0.653401H0.21535L0.117312 6.68424C-0.00728685 6.806 -0.0362003 6.99065 0.0477773 7.1281C0.132986 7.26748 2.09686 9.65592 2.12194 9.65064C2.15159 9.64443 4.1185 7.24222 4.18738 7.1281C4.27059 6.99027 4.24141 6.80562 4.11722 6.68424L4.01918 6.58844H3.50886H2.99851L3.01473 6.12899C3.05409 5.01259 3.43599 4.08364 4.18112 3.29179C4.93812 2.48731 5.80402 2.08553 6.86323 2.04726C7.24575 2.03343 7.366 2.04032 7.65183 2.09245C8.36427 2.2224 8.97386 2.51648 9.52809 2.99757L9.74503 3.18587L9.83823 3.07125C9.88949 3.00822 10.1704 2.65825 10.4625 2.29358L10.9935 1.63052L10.7953 1.45334C10.3157 1.02458 9.55533 0.558983 8.99449 0.350585C8.6469 0.221445 8.12339 0.0899414 7.75769 0.0399422C7.35435 -0.0152495 6.59721 -0.0128866 6.19417 0.0448137ZM10.8567 4.75101C10.2935 5.44073 9.81558 6.03985 9.79468 6.08238C9.73234 6.2093 9.76979 6.3822 9.8838 6.4936L9.98083 6.58844H10.489H10.9971L10.9798 6.727C10.8465 7.79863 10.4924 8.58403 9.81873 9.30284C9.20063 9.96233 8.50813 10.3441 7.64283 10.5025C7.36814 10.5528 7.24316 10.5599 6.87691 10.5463C6.07324 10.5166 5.42336 10.2975 4.7868 9.8416C4.56484 9.68264 4.55505 9.67873 4.50754 9.72978C4.48046 9.75887 4.2004 10.1043 3.88523 10.4974C3.35269 11.1615 3.31522 11.2157 3.35516 11.2633C3.42822 11.3506 3.99109 11.7411 4.26458 11.8943C5.90362 12.8127 7.93981 12.8362 9.61234 11.9561C10.2433 11.6241 10.7326 11.2413 11.2405 10.6824C11.9924 9.85484 12.4683 8.95418 12.7291 7.86488C12.8137 7.51147 12.9085 6.88155 12.9085 6.67327V6.58844H13.3466H13.7847L13.8827 6.49264C14.007 6.37114 14.0361 6.18649 13.9527 6.04877C13.9146 5.98582 12.0689 3.71118 11.8996 3.51853C11.8892 3.50669 11.4199 4.06129 10.8567 4.75101Z" fill="#537293"/>
</svg>
