<svg width="25" height="24" viewBox="0 0 25 24" fill="none" xmlns="http://www.w3.org/2000/svg">
<path fill-rule="evenodd" clip-rule="evenodd" d="M3.89134 4.1699C2.75414 5.54799 2.08474 6.74937 1.56405 8.3467C0.947205 10.2388 0.829828 12.3729 1.23021 14.4149C1.39974 15.2795 1.84795 16.577 2.26038 17.3973C2.59328 18.0594 3.02872 18.7563 3.51008 19.3975C3.84458 19.843 5.15376 21.1522 5.59929 21.4867C6.71512 22.3245 7.82911 22.9218 9.05326 23.3387C10.4382 23.8104 11.5092 23.9868 12.9856 23.9863C14.4459 23.9858 15.5355 23.8078 16.868 23.352C17.7977 23.0339 18.3494 22.78 19.1404 22.306C21.2161 21.0624 22.8009 19.318 23.8492 17.1233C24.1669 16.458 24.5952 15.1703 24.743 14.4358C25.0752 12.7847 25.053 10.9416 24.6806 9.26995C24.5436 8.65493 24.1344 7.47746 23.8498 6.87951C22.4342 3.90471 19.9423 1.68427 16.8591 0.650121C15.6149 0.232784 14.5034 0.0419423 13.1888 0.01992C11.731 -0.00457623 10.5166 0.187034 9.11192 0.663069C7.64365 1.16069 6.46874 1.81747 5.28051 2.8048C4.91123 3.11167 4.13592 3.87352 3.89134 4.1699ZM9.05687 7.31944C9.16874 7.29784 9.35951 7.29774 9.48076 7.31923L9.70124 7.35827L11.3457 8.9695L12.9901 10.5807L14.6356 8.96841L16.2811 7.35609L16.5016 7.3169C16.6228 7.29533 16.8145 7.29547 16.9275 7.31723C17.1023 7.35081 17.1708 7.39457 17.3865 7.61029C17.6022 7.82601 17.646 7.89453 17.6796 8.06928C17.7013 8.18229 17.7015 8.37397 17.6799 8.49522L17.6407 8.71573L16.0284 10.3612L14.4161 12.0067L16.0273 13.6511L17.6385 15.2956L17.6776 15.516C17.6991 15.6373 17.6988 15.829 17.677 15.942C17.6433 16.1168 17.5995 16.1853 17.3836 16.4012C17.1677 16.617 17.0992 16.6608 16.9244 16.6945C16.8114 16.7164 16.6197 16.7166 16.4985 16.6951L16.278 16.6561L14.6336 15.0449L12.9891 13.4336L11.3437 15.046L9.69817 16.6583L9.47765 16.6975C9.12483 16.7602 8.8878 16.6921 8.61948 16.4509C8.33295 16.1933 8.22881 15.9056 8.29153 15.5446L8.33334 15.3038L9.94826 13.6557L11.5632 12.0077L9.94935 10.3606L8.33552 8.71364L8.29387 8.47288C8.23139 8.11195 8.33572 7.8241 8.62242 7.56639C8.79666 7.40972 8.9034 7.34908 9.05687 7.31944Z" fill="#DA5454"/>
</svg>
