<svg width="23" height="22" viewBox="0 0 23 22" fill="none" xmlns="http://www.w3.org/2000/svg">
<path fill-rule="evenodd" clip-rule="evenodd" d="M9.99273 0.0123931C8.40583 0.193727 7.42797 0.464106 6.28492 1.03763C5.33214 1.51569 4.62476 2.01539 3.84971 2.75791C0.727153 5.74947 -0.0876905 10.4176 1.84234 14.258C3.95167 18.4552 8.63533 20.5933 13.1646 19.4266C14.4095 19.1059 15.4845 18.5772 16.769 17.6539C16.823 17.6151 17.3393 18.1005 18.9643 19.7177C21.3088 22.0509 21.3037 22.0468 21.8441 21.9829C22.524 21.9024 22.9453 21.2548 22.7615 20.5725C22.701 20.3477 22.5247 20.1566 20.5543 18.1797C18.9234 16.5435 18.425 16.0147 18.4637 15.9616C19.4685 14.5805 20.0566 13.2981 20.3709 11.8026C20.5359 11.018 20.5981 9.54256 20.5 8.74649C20.3275 7.34799 19.8592 5.95925 19.1841 4.84409C18.1456 3.12876 16.7394 1.84389 14.9616 0.985986C13.9903 0.517246 13.1874 0.265282 12.1667 0.10895C11.6677 0.0325069 10.3348 -0.0267029 9.99273 0.0123931ZM12.2205 2.34339C14.2407 2.7719 15.9185 3.89591 17.0504 5.5791C18.8004 8.18119 18.8049 11.5207 17.0621 14.1522C16.5996 14.8506 15.6573 15.7918 14.9578 16.2543C13.4958 17.2208 11.7948 17.6633 10.0801 17.5233C7.37303 17.3023 5.03627 15.7385 3.83174 13.3416C2.04743 9.79102 3.2242 5.51027 6.57363 3.36755C7.41608 2.82859 8.61633 2.39684 9.68811 2.24724C10.2477 2.1691 11.65 2.22235 12.2205 2.34339Z" fill="#828282"/>
</svg>
