<svg  viewBox="0 0 24 24"  xmlns="http://www.w3.org/2000/svg" id='sign-icon'>
<path fill-rule="evenodd" clip-rule="evenodd" d="M12 24C18.6274 24 24 18.6274 24 12C24 5.37258 18.6274 0 12 0C5.37258 0 0 5.37258 0 12C0 18.6274 5.37258 24 12 24ZM12.3439 7.55391C12.6964 6.84721 12.795 6.70616 13.2947 6.19349C13.3984 6.08708 13.4888 6 13.4956 6C13.5023 6 14.5186 7.01091 15.7539 8.24649L18 10.493L17.665 10.823C17.2646 11.2176 17.1085 11.324 16.4446 11.6552L15.9579 11.898L14.0295 9.96935L12.1012 8.04072L12.3439 7.55391ZM8.57877 9.77219C9.2989 9.79081 10.0793 9.58433 10.7642 9.19398C10.8802 9.12782 10.9805 9.07336 10.987 9.07299C10.9935 9.07261 11.8838 9.95753 12.9655 11.0395L14.9323 13.0066L14.8027 13.2381C14.5571 13.677 14.4006 14.0968 14.2887 14.6167C14.2468 14.8113 14.2375 14.9338 14.2362 15.3051C14.2348 15.7153 14.2309 15.758 14.1933 15.77C14.0699 15.8093 6.00449 18.0045 6.00001 18C5.99555 17.9955 8.18988 9.93084 8.22975 9.80523C8.2418 9.76726 8.27311 9.76428 8.57877 9.77219Z" />
</svg>
