<svg  viewBox="0 0 24 24"  xmlns="http://www.w3.org/2000/svg" id='subtract-icon'>
<path fill-rule="evenodd" clip-rule="evenodd" d="M12 24C18.6274 24 24 18.6274 24 12C24 5.37258 18.6274 0 12 0C5.37258 0 0 5.37258 0 12C0 18.6274 5.37258 24 12 24ZM16.4853 7.00007L7.48528 7.00007C6.933 7.00007 6.48528 7.44779 6.48528 8.00007C6.48528 8.55235 6.933 9.00007 7.48528 9.00007L14.0711 9.00007L7.29289 15.7782L8.70711 17.1925L15.4853 10.4143L15.4853 17.0001C15.4853 17.5524 15.933 18.0001 16.4853 18.0001C17.0376 18.0001 17.4853 17.5524 17.4853 17.0001V8.00007C17.4853 7.44779 17.0376 7.00007 16.4853 7.00007Z" />
</svg>
