<svg  viewBox="0 0 18 18" xmlns="http://www.w3.org/2000/svg" id='subtract'>
<path fill-rule="evenodd" clip-rule="evenodd" d="M10.942 0.290228C10.1924 1.05924 10.0446 1.27081 9.51591 2.33086L9.15175 3.06107L12.0443 5.95403L14.9369 8.84698L15.667 8.48277C16.6627 7.98597 16.8968 7.8264 17.4975 7.23451L18 6.73944L14.6309 3.36974C12.7779 1.51636 11.2535 0 11.2433 0C11.2332 0 11.0976 0.13062 10.942 0.290228ZM7.14625 4.79097C6.11902 5.37649 4.94836 5.68621 3.86816 5.65828C3.40966 5.64642 3.3627 5.65089 3.34462 5.70785C3.28483 5.89627 -0.00667294 17.9933 1.01633e-05 18C0.00672844 18.0067 12.1048 14.7139 12.29 14.655C12.3463 14.637 12.3523 14.573 12.3543 13.9577C12.3562 13.4007 12.3702 13.2169 12.433 12.9251C12.6008 12.1451 12.8356 11.5155 13.2041 10.8572L13.3985 10.5099L10.4483 7.55918C8.82572 5.9363 7.49019 4.60892 7.48048 4.60948C7.47077 4.61005 7.32037 4.69173 7.14625 4.79097Z" />
</svg>
