<svg  viewBox="0 0 24 24"  xmlns="http://www.w3.org/2000/svg" id='subtractblue'>
<path fill-rule="evenodd" clip-rule="evenodd" d="M12 24C18.6274 24 24 18.6274 24 12C24 5.37258 18.6274 0 12 0C5.37258 0 0 5.37258 0 12C0 18.6274 5.37258 24 12 24ZM10.1078 13.541C10.1616 13.4895 11.7668 11.9966 13.6749 10.2236L17.1441 7L17.3027 7.17037C17.3899 7.26408 17.8075 7.717 18.2306 8.17689L19 9.01305L18.8977 9.1121C18.8415 9.16658 16.8566 11.0097 14.4869 13.2079C12.1171 15.4061 10.1099 17.2711 10.0263 17.3523L9.87437 17.5L7.52319 14.9863C6.23005 13.6038 5.13331 12.4279 5.08601 12.3732L5 12.2738L5.97714 11.3579C6.51456 10.8542 6.96641 10.438 6.98121 10.433C6.99601 10.4281 7.68353 11.1465 8.50903 12.0294L10.0099 13.6347L10.1078 13.541Z"/>
</svg>
