<svg width="21" height="26" viewBox="0 0 21 26" fill="none" xmlns="http://www.w3.org/2000/svg">
<path d="M16.481 1.21831C16.3038 1.07697 16.0839 1 15.8573 1H2C1.44771 1 1 1.44772 1 2V24C1 24.5523 1.44772 25 2 25H19C19.5523 25 20 24.5523 20 24V4.50734C20 4.2031 19.8615 3.9154 19.6237 3.72565L16.481 1.21831Z" fill="#1D2E42" stroke="#1D2E42"/>
<path d="M4.98935 21.0472C4.85346 21.0472 4.73662 20.9992 4.63885 20.9031C4.54107 20.8053 4.49219 20.6876 4.49219 20.5501C4.49219 20.4142 4.54107 20.2982 4.63885 20.2021C4.73662 20.1043 4.85346 20.0554 4.98935 20.0554C5.12524 20.0554 5.24207 20.1043 5.33984 20.2021C5.43762 20.2982 5.48651 20.4142 5.48651 20.5501C5.48651 20.6412 5.46331 20.7249 5.4169 20.8011C5.37216 20.8757 5.3125 20.9354 5.23793 20.9801C5.16335 21.0249 5.08049 21.0472 4.98935 21.0472ZM7.06871 17.1818L7.9114 18.6683L8.76154 17.1818H9.5744L8.3837 19.0909L9.58434 21H8.77148L7.9114 19.5732L7.0538 21H6.23846L7.42667 19.0909L6.25337 17.1818H7.06871ZM10.3375 21V17.1818H11.051V17.8033H11.0982C11.1777 17.5928 11.3078 17.4287 11.4885 17.3111C11.6691 17.1918 11.8854 17.1321 12.1373 17.1321C12.3925 17.1321 12.6062 17.1918 12.7786 17.3111C12.9526 17.4304 13.081 17.5945 13.1639 17.8033H13.2037C13.2948 17.5994 13.4398 17.437 13.6387 17.3161C13.8375 17.1934 14.0745 17.1321 14.3496 17.1321C14.696 17.1321 14.9785 17.2406 15.1973 17.4577C15.4177 17.6748 15.5279 18.0021 15.5279 18.4396V21H14.7846V18.5092C14.7846 18.2507 14.7142 18.0634 14.5733 17.9474C14.4325 17.8314 14.2643 17.7734 14.0687 17.7734C13.8268 17.7734 13.6387 17.848 13.5044 17.9972C13.3702 18.1446 13.3031 18.3344 13.3031 18.5664V21H12.5623V18.462C12.5623 18.2549 12.4977 18.0883 12.3684 17.9624C12.2392 17.8364 12.071 17.7734 11.8638 17.7734C11.723 17.7734 11.5929 17.8107 11.4735 17.8853C11.3559 17.9582 11.2606 18.0601 11.1877 18.1911C11.1164 18.322 11.0808 18.4736 11.0808 18.646V21H10.3375ZM17.2673 15.9091V21H16.5241V15.9091H17.2673Z" fill="white"/>
</svg>
